<?xml version="1.0" encoding="UTF-8" standalone="no"?>
<!DOCTYPE svg PUBLIC "-//W3C//DTD SVG 1.1//EN" "http://www.w3.org/Graphics/SVG/1.1/DTD/svg11.dtd">
<svg width="100%" height="100%" viewBox="0 0 216 365" version="1.1" xmlns="http://www.w3.org/2000/svg" xmlns:xlink="http://www.w3.org/1999/xlink" xml:space="preserve" xmlns:serif="http://www.serif.com/" style="fill-rule:evenodd;clip-rule:evenodd;stroke-linecap:square;stroke-linejoin:round;stroke-miterlimit:1.5;">
    <g>
        <rect id="rect420" x="-0.313" y="-0.366" width="216.463" height="364.252" style="fill:#202020;"/>
        <path d="M211.4,250.542c0,-8.026 -6.516,-14.542 -14.542,-14.542l-178.916,0c-8.026,0 -14.542,6.516 -14.542,14.542l-0,78.916c-0,8.026 6.516,14.542 14.542,14.542l178.916,0c8.026,0 14.542,-6.516 14.542,-14.542l0,-78.916Z" style="fill:#666;"/>
        <path d="M74.215,171.706l-0.152,0.8c-0.211,-0.153 -0.43,-0.269 -0.657,-0.347c-0.226,-0.078 -0.461,-0.117 -0.703,-0.117c-0.429,-0 -0.78,0.106 -1.051,0.32c-0.27,0.213 -0.406,0.486 -0.406,0.816c0,0.185 0.064,0.335 0.192,0.449c0.127,0.115 0.359,0.224 0.695,0.329l0.473,0.152c0.424,0.13 0.735,0.304 0.931,0.521c0.197,0.218 0.295,0.495 0.295,0.831c0,0.611 -0.216,1.097 -0.648,1.455c-0.433,0.358 -1.022,0.537 -1.77,0.537c-0.271,-0 -0.537,-0.03 -0.799,-0.088c-0.261,-0.059 -0.522,-0.147 -0.783,-0.264l0.16,-0.816c0.255,0.179 0.514,0.312 0.776,0.398c0.261,0.086 0.538,0.129 0.83,0.129c0.429,0 0.778,-0.115 1.047,-0.344c0.268,-0.229 0.402,-0.519 0.402,-0.871c-0,-0.213 -0.057,-0.379 -0.172,-0.496c-0.114,-0.117 -0.345,-0.229 -0.691,-0.336l-0.395,-0.129c-0.479,-0.151 -0.814,-0.322 -1.006,-0.513c-0.191,-0.192 -0.287,-0.445 -0.287,-0.76c0,-0.576 0.215,-1.046 0.645,-1.412c0.429,-0.366 0.991,-0.549 1.683,-0.549c0.209,-0 0.431,0.026 0.666,0.078c0.236,0.052 0.478,0.128 0.725,0.227Z" style="fill:#fff;fill-rule:nonzero;"/>
        <path d="M75.992,171.506l0.789,0l-1.007,5.168l2.816,0l-0.129,0.664l-3.605,0l1.136,-5.832Z" style="fill:#fff;fill-rule:nonzero;"/>
        <path d="M82.238,172.163l-1.421,3.023l1.679,0l-0.258,-3.023Zm-0.375,-0.657l0.961,0l0.649,5.832l-0.785,0l-0.137,-1.519l-2.031,-0l-0.719,1.519l-0.848,0l2.91,-5.832Z" style="fill:#fff;fill-rule:nonzero;"/>
        <path d="M85.297,171.506l1,0l1.031,4.801l0.934,-4.801l0.762,0l-1.137,5.832l-1,0l-1.031,-4.8l-0.938,4.8l-0.758,0l1.137,-5.832Z" style="fill:#fff;fill-rule:nonzero;"/>
        <path d="M89.754,171.506l4.453,0l-0.129,0.664l-1.832,0l-1,5.168l-0.797,0l1.008,-5.168l-1.832,0l0.129,-0.664Z" style="fill:#fff;fill-rule:nonzero;"/>
        <path d="M82.559,97.835l-0,8" style="fill:none;stroke:#d08c59;stroke-width:0.75px;"/>
        <path d="M125.089,177.131c-0.219,0.107 -0.44,0.187 -0.662,0.241c-0.223,0.053 -0.453,0.08 -0.69,0.08c-0.599,-0 -1.063,-0.173 -1.393,-0.52c-0.329,-0.346 -0.494,-0.832 -0.494,-1.457c0,-0.573 0.092,-1.14 0.274,-1.703c0.182,-0.562 0.422,-1.022 0.719,-1.379c0.278,-0.338 0.585,-0.588 0.921,-0.75c0.336,-0.161 0.719,-0.242 1.149,-0.242c0.208,-0 0.415,0.027 0.621,0.082c0.206,0.055 0.406,0.134 0.602,0.238l-0.161,0.809c-0.166,-0.164 -0.342,-0.287 -0.527,-0.367c-0.185,-0.081 -0.381,-0.121 -0.59,-0.121c-0.247,-0 -0.476,0.052 -0.687,0.158c-0.211,0.105 -0.409,0.266 -0.594,0.482c-0.271,0.32 -0.489,0.731 -0.654,1.231c-0.166,0.5 -0.248,1.001 -0.248,1.504c-0,0.45 0.101,0.795 0.304,1.035c0.203,0.239 0.496,0.359 0.879,0.359c0.222,0 0.45,-0.042 0.686,-0.125c0.235,-0.083 0.468,-0.204 0.697,-0.363l-0.152,0.808Z" style="fill:#fff;fill-rule:nonzero;"/>
        <path d="M126.667,175.1l0.695,-3.594l0.793,0l-0.699,3.594c-0.005,0.034 -0.016,0.087 -0.031,0.16c-0.079,0.401 -0.118,0.679 -0.118,0.832c0,0.24 0.071,0.42 0.213,0.539c0.142,0.12 0.356,0.18 0.643,0.18c0.232,0 0.428,-0.037 0.59,-0.111c0.161,-0.074 0.3,-0.192 0.418,-0.354c0.057,-0.08 0.115,-0.219 0.173,-0.416c0.059,-0.196 0.124,-0.473 0.194,-0.83l0.695,-3.594l0.793,0l-0.695,3.594c-0.11,0.57 -0.226,0.989 -0.35,1.256c-0.123,0.267 -0.287,0.482 -0.49,0.646c-0.185,0.146 -0.396,0.258 -0.633,0.334c-0.237,0.077 -0.493,0.116 -0.769,0.116c-0.5,-0 -0.885,-0.117 -1.155,-0.352c-0.269,-0.234 -0.404,-0.568 -0.404,-1c0,-0.096 0.011,-0.226 0.033,-0.39c0.022,-0.165 0.057,-0.368 0.104,-0.61Z" style="fill:#fff;fill-rule:nonzero;"/>
        <path d="M134.026,174.585c0.188,0.036 0.338,0.123 0.451,0.261c0.114,0.138 0.241,0.438 0.381,0.899l0.473,1.593l-0.785,0l-0.414,-1.472c-0.115,-0.406 -0.243,-0.673 -0.385,-0.801c-0.142,-0.128 -0.356,-0.191 -0.643,-0.191l-0.75,-0l-0.48,2.464l-0.793,0l1.129,-5.832l1.625,0c0.539,0 0.956,0.117 1.252,0.35c0.295,0.233 0.443,0.562 0.443,0.986c0,0.477 -0.135,0.871 -0.404,1.184c-0.27,0.312 -0.636,0.499 -1.1,0.559Zm-1.144,-2.43l-0.399,2.07l0.856,0c0.424,0 0.763,-0.111 1.017,-0.334c0.254,-0.222 0.381,-0.519 0.381,-0.889c0,-0.291 -0.082,-0.505 -0.246,-0.642c-0.164,-0.137 -0.423,-0.205 -0.777,-0.205l-0.832,-0Z" style="fill:#fff;fill-rule:nonzero;"/>
        <path d="M137.843,176.596l2.335,-5.09l0.84,0l-2.808,5.832l-1.008,0l-0.574,-5.832l0.773,0l0.442,5.09Z" style="fill:#fff;fill-rule:nonzero;"/>
        <path d="M142.011,171.506l3.457,0l-0.129,0.664l-2.672,0l-0.336,1.727l2.551,0l-0.125,0.664l-2.555,0l-0.406,2.113l2.742,0l-0.129,0.664l-3.535,0l1.137,-5.832Z" style="fill:#fff;fill-rule:nonzero;"/>
        <path d="M134.225,97.835l0,8" style="fill:none;stroke:#d08c59;stroke-width:0.75px;"/>
        <g>
            <path id="path40" d="M198.509,92.605l-2.304,-0.575l0.573,-2.308" style="fill:none;stroke:#d08c59;stroke-width:0.7px;stroke-linecap:butt;stroke-linejoin:miter;stroke-miterlimit:10;"/>
            <path id="path41" d="M172.022,91.132c-5.346,-3.882 -8.816,-10.138 -8.816,-17.19c-0,-11.767 9.667,-21.32 21.576,-21.32c11.91,-0 21.578,9.553 21.578,21.32c0,6.065 -2.568,11.542 -6.688,15.426c-1.059,0.998 -2.22,1.892 -3.467,2.662" style="fill:none;stroke:#d08c59;stroke-width:0.7px;stroke-linecap:butt;"/>
        </g>
        <g transform="matrix(1,0,0,1,93.0888,157.294)">
            <g transform="matrix(8,0,0,8,81.2784,30.0447)">
                <path d="M0.18,-0.729l0.099,-0l-0.126,0.646l0.352,-0l-0.016,0.083l-0.451,-0l0.142,-0.729Z" style="fill:#fff;fill-rule:nonzero;"/>
            </g>
            <g transform="matrix(8,0,0,8,86.0948,30.0447)">
                <path d="M0.359,-0.647l-0.178,0.378l0.21,-0l-0.032,-0.378Zm-0.047,-0.082l0.12,-0l0.081,0.729l-0.098,-0l-0.017,-0.19l-0.254,0l-0.09,0.19l-0.106,-0l0.364,-0.729Z" style="fill:#fff;fill-rule:nonzero;"/>
            </g>
            <g transform="matrix(8,0,0,8,90.9112,30.0447)">
                <path d="M0.56,-0.704l-0.019,0.1c-0.026,-0.019 -0.054,-0.034 -0.082,-0.043c-0.028,-0.01 -0.058,-0.015 -0.088,-0.015c-0.054,-0 -0.097,0.013 -0.131,0.04c-0.034,0.027 -0.051,0.061 -0.051,0.102c-0,0.023 0.008,0.042 0.024,0.056c0.016,0.014 0.045,0.028 0.087,0.041l0.059,0.019c0.053,0.016 0.092,0.038 0.116,0.065c0.025,0.028 0.037,0.062 0.037,0.104c0,0.077 -0.027,0.137 -0.081,0.182c-0.054,0.045 -0.128,0.067 -0.221,0.067c-0.034,0 -0.067,-0.004 -0.1,-0.011c-0.033,-0.007 -0.065,-0.018 -0.098,-0.033l0.02,-0.102c0.032,0.023 0.064,0.039 0.097,0.05c0.033,0.011 0.067,0.016 0.104,0.016c0.054,0 0.097,-0.014 0.131,-0.043c0.033,-0.029 0.05,-0.065 0.05,-0.109c0,-0.026 -0.007,-0.047 -0.021,-0.062c-0.015,-0.014 -0.044,-0.028 -0.087,-0.042l-0.049,-0.016c-0.06,-0.019 -0.102,-0.04 -0.126,-0.064c-0.024,-0.024 -0.036,-0.056 -0.036,-0.095c0,-0.072 0.027,-0.131 0.081,-0.177c0.053,-0.045 0.124,-0.068 0.21,-0.068c0.026,-0 0.054,0.003 0.083,0.01c0.03,0.006 0.06,0.016 0.091,0.028Z" style="fill:#fff;fill-rule:nonzero;"/>
            </g>
            <g transform="matrix(8,0,0,8,95.7276,30.0447)">
                <path d="M0.094,-0.729l0.557,-0l-0.016,0.083l-0.229,0l-0.125,0.646l-0.1,-0l0.126,-0.646l-0.229,0l0.016,-0.083Z" style="fill:#fff;fill-rule:nonzero;"/>
            </g>
            <g transform="matrix(8,0,0,8,78.8702,39.0447)">
                <path d="M0.071,-0.729l0.093,-0l-0.044,0.591l0.161,-0.391l0.103,0l0.007,0.392l0.184,-0.592l0.097,-0l-0.249,0.729l-0.095,-0l-0.015,-0.425l-0.181,0.425l-0.092,-0l0.031,-0.729Z" style="fill:#fff;fill-rule:nonzero;"/>
            </g>
            <g transform="matrix(8,0,0,8,83.6866,39.0447)">
                <path d="M0.169,-0.729l0.405,-0l-0.016,0.083l-0.153,0l-0.109,0.563l0.153,-0l-0.016,0.083l-0.405,-0l0.016,-0.083l0.153,-0l0.109,-0.563l-0.153,0l0.016,-0.083Z" style="fill:#fff;fill-rule:nonzero;"/>
            </g>
            <g transform="matrix(8,0,0,8,88.503,39.0447)">
                <path d="M0.158,-0.081c0.06,-0 0.109,-0.01 0.145,-0.031c0.037,-0.02 0.066,-0.053 0.088,-0.099c0.018,-0.037 0.032,-0.082 0.043,-0.134c0.012,-0.052 0.017,-0.099 0.017,-0.143c0,-0.057 -0.013,-0.098 -0.04,-0.123c-0.027,-0.025 -0.071,-0.037 -0.134,-0.037l-0.056,0l-0.11,0.567l0.047,-0Zm0.128,-0.648c0.089,-0 0.155,0.02 0.2,0.061c0.044,0.04 0.066,0.101 0.066,0.183c-0,0.053 -0.007,0.107 -0.021,0.163c-0.013,0.056 -0.032,0.106 -0.055,0.149c-0.034,0.062 -0.076,0.107 -0.127,0.133c-0.05,0.027 -0.119,0.04 -0.205,0.04l-0.148,-0l0.142,-0.729l0.148,-0Z" style="fill:#fff;fill-rule:nonzero;"/>
            </g>
            <g transform="matrix(8,0,0,8,93.3194,39.0447)">
                <path d="M0.094,-0.729l0.557,-0l-0.016,0.083l-0.229,0l-0.125,0.646l-0.1,-0l0.126,-0.646l-0.229,0l0.016,-0.083Z" style="fill:#fff;fill-rule:nonzero;"/>
            </g>
            <g transform="matrix(8,0,0,8,98.1358,39.0447)">
                <path d="M0.138,-0.729l0.099,-0l-0.058,0.299l0.27,-0l0.058,-0.299l0.099,-0l-0.142,0.729l-0.099,-0l0.068,-0.347l-0.271,-0l-0.067,0.347l-0.099,-0l0.142,-0.729Z" style="fill:#fff;fill-rule:nonzero;"/>
            </g>
        </g>
        <path d="M184.783,107.835l0,8" style="fill:none;stroke:#d08c59;stroke-width:0.75px;"/>
        <g>
            <g>
                <path d="M95.792,354.678c0.172,0.357 0.228,0.715 0.168,1.075l-1.203,-0c-0.018,-0.276 -0.074,-0.485 -0.168,-0.625c-0.164,-0.25 -0.461,-0.375 -0.89,-0.375c-0.438,-0 -0.821,0.176 -1.149,0.529c-0.328,0.353 -0.56,0.852 -0.695,1.498c-0.138,0.646 -0.108,1.129 0.09,1.451c0.198,0.322 0.502,0.482 0.914,0.482c0.422,0 0.773,-0.138 1.054,-0.414c0.154,-0.148 0.303,-0.371 0.446,-0.668l1.191,0c-0.237,0.628 -0.611,1.138 -1.123,1.532c-0.512,0.393 -1.102,0.59 -1.771,0.59c-0.828,-0 -1.424,-0.266 -1.786,-0.797c-0.359,-0.534 -0.44,-1.266 -0.242,-2.196c0.214,-1.005 0.647,-1.78 1.301,-2.324c0.57,-0.474 1.218,-0.711 1.941,-0.711c0.969,0 1.61,0.318 1.922,0.953Z" style="fill:#fff;fill-rule:nonzero;"/>
                <path d="M98.456,358.206l2.192,-4.371l1.25,-0l-3.188,5.757l-1.136,0l-0.723,-5.757l1.285,-0l0.32,4.371Z" style="fill:#fff;fill-rule:nonzero;"/>
                <path d="M106.441,355.374l-0.168,0.785l-0.731,-0l-0.726,3.433l-1.11,0l0.727,-3.433l-0.621,-0l0.168,-0.785l0.609,-0l0.059,-0.274c0.096,-0.456 0.239,-0.769 0.43,-0.941c0.216,-0.255 0.632,-0.383 1.25,-0.383c0.07,-0 0.133,0.002 0.189,0.006c0.056,0.004 0.133,0.01 0.232,0.017l-0.195,0.907c-0.06,-0.008 -0.163,-0.014 -0.309,-0.018c-0.145,-0.004 -0.254,0.029 -0.326,0.098c-0.071,0.069 -0.115,0.145 -0.131,0.228c-0.018,0.084 -0.044,0.203 -0.078,0.36l0.731,-0Z" style="fill:#fff;fill-rule:nonzero;"/>
                <path d="M109.042,358.991c-0.013,0.013 -0.047,0.052 -0.101,0.117c-0.055,0.065 -0.116,0.122 -0.184,0.172c-0.208,0.156 -0.4,0.263 -0.576,0.32c-0.176,0.057 -0.373,0.086 -0.592,0.086c-0.63,0 -1.006,-0.226 -1.129,-0.68c-0.067,-0.25 -0.049,-0.618 0.055,-1.105l0.543,-2.566l1.141,-0l-0.543,2.566c-0.052,0.242 -0.063,0.424 -0.032,0.547c0.055,0.216 0.231,0.324 0.528,0.324c0.38,0 0.673,-0.154 0.879,-0.461c0.109,-0.167 0.192,-0.387 0.25,-0.66l0.492,-2.316l1.129,-0l-0.903,4.257l-1.082,0l0.125,-0.601Z" style="fill:#fff;fill-rule:nonzero;"/>
                <path d="M114.339,357.003c0.05,-0.224 0.056,-0.396 0.02,-0.516c-0.063,-0.219 -0.248,-0.328 -0.555,-0.328c-0.378,-0 -0.67,0.16 -0.879,0.48c-0.109,0.17 -0.191,0.386 -0.246,0.649l-0.488,2.304l-1.11,0l0.903,-4.25l1.074,0l-0.133,0.621c0.19,-0.218 0.36,-0.376 0.508,-0.472c0.266,-0.172 0.574,-0.258 0.926,-0.258c0.44,0 0.775,0.115 1.006,0.346c0.23,0.23 0.289,0.612 0.177,1.146l-0.609,2.867l-1.141,0l0.547,-2.589Z" style="fill:#fff;fill-rule:nonzero;"/>
                <path d="M117.324,358.253l-0.282,1.339l-1.093,0l1.218,-5.738l1.094,0l-0.66,3.102l1.727,-1.602l1.378,0l-1.836,1.629l0.997,2.609l-1.344,0l-0.633,-1.82l-0.566,0.481Z" style="fill:#fff;fill-rule:nonzero;"/>
            </g>
            <path d="M69.163,356.739l19,-0" style="fill:none;stroke:#d08c59;stroke-width:0.65px;stroke-linecap:round;"/>
            <path d="M121.699,356.739l19,-0" style="fill:none;stroke:#d08c59;stroke-width:0.65px;stroke-linecap:round;"/>
        </g>
        <path d="M88.04,102.692l0.154,-0.738l1.916,-0l0.413,-1.929l0.751,-0l-0.413,1.929l1.916,-0l-0.154,0.738l-1.916,0l-0.408,1.925l-0.752,0l0.409,-1.925l-1.916,0Z" style="fill:#d08c59;fill-rule:nonzero;"/>
        <path d="M140.815,102.692l0.154,-0.738l1.916,-0l0.413,-1.929l0.752,-0l-0.414,1.929l1.916,-0l-0.153,0.738l-1.916,0l-0.409,1.925l-0.751,0l0.408,-1.925l-1.916,0Z" style="fill:#d08c59;fill-rule:nonzero;"/>
        <path d="M191.544,112.692l0.153,-0.738l1.916,-0l0.414,-1.929l0.751,-0l-0.413,1.929l1.916,-0l-0.154,0.738l-1.916,0l-0.409,1.925l-0.751,0l0.409,-1.925l-1.916,0Z" style="fill:#d08c59;fill-rule:nonzero;"/>
        <path d="M71.808,101.805l5.041,-0l-0.141,0.646l-5.04,-0l0.14,-0.646Z" style="fill:#d08c59;fill-rule:nonzero;"/>
        <path d="M124.584,101.805l5.04,-0l-0.14,0.646l-5.041,-0l0.141,-0.646Z" style="fill:#d08c59;fill-rule:nonzero;"/>
        <path d="M175.312,111.805l5.041,-0l-0.141,0.646l-5.041,-0l0.141,-0.646Z" style="fill:#d08c59;fill-rule:nonzero;"/>
        <path d="M77.546,44.745l6.206,-6.521l5.835,6.521l-11.722,-0" style="fill:#d08c59;"/>
        <path d="M127.741,44.745l6.206,-6.521l5.835,6.521l-11.722,-0" style="fill:#d08c59;"/>
        <path d="M94.289,79.028l10.606,-6.52l1.435,6.52l-11.722,0" style="fill:#d08c59;"/>
        <path d="M58.987,79.075l1.406,-6.521l10.635,6.521l-11.722,-0" style="fill:#d08c59;"/>
        <path d="M158.051,79.075c-0.627,-4.765 -2.707,-6.919 -6.206,-6.521c0.411,3.398 -0.76,5.973 -5.835,6.521l11.722,-0" style="fill:#d08c59;"/>
        <path d="M110.473,79.075c0.627,-4.765 2.707,-6.919 6.205,-6.521c-0.41,3.398 0.761,5.973 5.836,6.521l-11.722,-0" style="fill:#d08c59;"/>
        <path d="M38.56,220.35l4.5,2.25l-4.5,2.25l-0,-4.5Z" style="fill:#d08c59;"/>
        <path d="M32,222.6l7.46,0" style="fill:none;stroke:#d08c59;stroke-width:1px;stroke-linejoin:miter;"/>
        <path d="M73.56,220.35l4.5,2.25l-4.5,2.25l-0,-4.5Z" style="fill:#d08c59;"/>
        <path d="M67,222.6l7.46,-0" style="fill:none;stroke:#d08c59;stroke-width:1px;stroke-linejoin:miter;"/>
        <path d="M108.949,220.35l4.5,2.25l-4.5,2.25l-0,-4.5Z" style="fill:#d08c59;"/>
        <path d="M102.389,222.6l7.46,-0" style="fill:none;stroke:#d08c59;stroke-width:1px;stroke-linejoin:miter;"/>
        <path d="M142.949,220.35l4.5,2.25l-4.5,2.25l-0,-4.5Z" style="fill:#d08c59;"/>
        <path d="M136.389,222.6l7.46,-0" style="fill:none;stroke:#d08c59;stroke-width:1px;stroke-linejoin:miter;"/>
        <path d="M177.949,220.35l4.5,2.25l-4.5,2.25l-0,-4.5Z" style="fill:#d08c59;"/>
        <path d="M171.389,222.6l7.46,-0" style="fill:none;stroke:#d08c59;stroke-width:1px;stroke-linejoin:miter;"/>
        <g>
            <path id="path401" serif:id="path40" d="M44.843,92.605l-2.304,-0.575l0.573,-2.308" style="fill:none;stroke:#d08c59;stroke-width:0.7px;stroke-linecap:butt;stroke-linejoin:miter;stroke-miterlimit:10;"/>
            <path id="path411" serif:id="path41" d="M18.355,91.132c-5.345,-3.882 -8.816,-10.138 -8.816,-17.19c0,-11.767 9.668,-21.32 21.577,-21.32c11.909,-0 21.578,9.553 21.578,21.32c-0,6.065 -2.569,11.542 -6.689,15.426c-1.059,0.998 -2.22,1.892 -3.466,2.662" style="fill:none;stroke:#d08c59;stroke-width:0.7px;stroke-linecap:butt;"/>
        </g>
        <g transform="matrix(1,0,0,1,-60.5779,157.294)">
            <g transform="matrix(8,0,0,8,78.8702,30.0447)">
                <path d="M0.187,-0.729l0.429,-0l-0.016,0.083l-0.33,0l-0.042,0.215l0.299,-0l-0.016,0.083l-0.299,-0l-0.068,0.348l-0.099,-0l0.142,-0.729Z" style="fill:#fff;fill-rule:nonzero;"/>
            </g>
            <g transform="matrix(8,0,0,8,83.6866,30.0447)">
                <path d="M0.169,-0.729l0.405,-0l-0.016,0.083l-0.153,0l-0.109,0.563l0.153,-0l-0.016,0.083l-0.405,-0l0.016,-0.083l0.153,-0l0.109,-0.563l-0.153,0l0.016,-0.083Z" style="fill:#fff;fill-rule:nonzero;"/>
            </g>
            <g transform="matrix(8,0,0,8,88.503,30.0447)">
                <path d="M0.374,-0.344c0.023,0.004 0.042,0.015 0.056,0.032c0.015,0.018 0.03,0.055 0.048,0.113l0.059,0.199l-0.098,0l-0.052,-0.184c-0.014,-0.051 -0.03,-0.084 -0.048,-0.1c-0.018,-0.016 -0.044,-0.024 -0.08,-0.024l-0.094,-0l-0.06,0.308l-0.099,0l0.141,-0.729l0.203,-0c0.067,-0 0.12,0.015 0.157,0.044c0.037,0.029 0.055,0.07 0.055,0.123c0,0.06 -0.017,0.109 -0.051,0.148c-0.033,0.039 -0.079,0.062 -0.137,0.07Zm-0.143,-0.304l-0.05,0.259l0.107,-0c0.053,-0 0.096,-0.014 0.127,-0.042c0.032,-0.028 0.048,-0.065 0.048,-0.111c-0,-0.036 -0.01,-0.063 -0.031,-0.08c-0.02,-0.017 -0.053,-0.026 -0.097,-0.026l-0.104,0Z" style="fill:#fff;fill-rule:nonzero;"/>
            </g>
            <g transform="matrix(8,0,0,8,93.3194,30.0447)">
                <path d="M0.56,-0.704l-0.019,0.1c-0.026,-0.019 -0.054,-0.034 -0.082,-0.043c-0.028,-0.01 -0.058,-0.015 -0.088,-0.015c-0.054,-0 -0.097,0.013 -0.131,0.04c-0.034,0.027 -0.051,0.061 -0.051,0.102c-0,0.023 0.008,0.042 0.024,0.056c0.016,0.014 0.045,0.028 0.087,0.041l0.059,0.019c0.053,0.016 0.092,0.038 0.116,0.065c0.025,0.028 0.037,0.062 0.037,0.104c0,0.077 -0.027,0.137 -0.081,0.182c-0.054,0.045 -0.128,0.067 -0.221,0.067c-0.034,0 -0.067,-0.004 -0.1,-0.011c-0.033,-0.007 -0.065,-0.018 -0.098,-0.033l0.02,-0.102c0.032,0.023 0.064,0.039 0.097,0.05c0.033,0.011 0.067,0.016 0.104,0.016c0.054,0 0.097,-0.014 0.131,-0.043c0.033,-0.029 0.05,-0.065 0.05,-0.109c0,-0.026 -0.007,-0.047 -0.021,-0.062c-0.015,-0.014 -0.044,-0.028 -0.087,-0.042l-0.049,-0.016c-0.06,-0.019 -0.102,-0.04 -0.126,-0.064c-0.024,-0.024 -0.036,-0.056 -0.036,-0.095c0,-0.072 0.027,-0.131 0.081,-0.177c0.053,-0.045 0.124,-0.068 0.21,-0.068c0.026,-0 0.054,0.003 0.083,0.01c0.03,0.006 0.06,0.016 0.091,0.028Z" style="fill:#fff;fill-rule:nonzero;"/>
            </g>
            <g transform="matrix(8,0,0,8,98.1358,30.0447)">
                <path d="M0.094,-0.729l0.557,-0l-0.016,0.083l-0.229,0l-0.125,0.646l-0.1,-0l0.126,-0.646l-0.229,0l0.016,-0.083Z" style="fill:#fff;fill-rule:nonzero;"/>
            </g>
            <g transform="matrix(8,0,0,8,78.8702,39.0447)">
                <path d="M0.071,-0.729l0.093,-0l-0.044,0.591l0.161,-0.391l0.103,0l0.007,0.392l0.184,-0.592l0.097,-0l-0.249,0.729l-0.095,-0l-0.015,-0.425l-0.181,0.425l-0.092,-0l0.031,-0.729Z" style="fill:#fff;fill-rule:nonzero;"/>
            </g>
            <g transform="matrix(8,0,0,8,83.6866,39.0447)">
                <path d="M0.169,-0.729l0.405,-0l-0.016,0.083l-0.153,0l-0.109,0.563l0.153,-0l-0.016,0.083l-0.405,-0l0.016,-0.083l0.153,-0l0.109,-0.563l-0.153,0l0.016,-0.083Z" style="fill:#fff;fill-rule:nonzero;"/>
            </g>
            <g transform="matrix(8,0,0,8,88.503,39.0447)">
                <path d="M0.158,-0.081c0.06,-0 0.109,-0.01 0.145,-0.031c0.037,-0.02 0.066,-0.053 0.088,-0.099c0.018,-0.037 0.032,-0.082 0.043,-0.134c0.012,-0.052 0.017,-0.099 0.017,-0.143c0,-0.057 -0.013,-0.098 -0.04,-0.123c-0.027,-0.025 -0.071,-0.037 -0.134,-0.037l-0.056,0l-0.11,0.567l0.047,-0Zm0.128,-0.648c0.089,-0 0.155,0.02 0.2,0.061c0.044,0.04 0.066,0.101 0.066,0.183c-0,0.053 -0.007,0.107 -0.021,0.163c-0.013,0.056 -0.032,0.106 -0.055,0.149c-0.034,0.062 -0.076,0.107 -0.127,0.133c-0.05,0.027 -0.119,0.04 -0.205,0.04l-0.148,-0l0.142,-0.729l0.148,-0Z" style="fill:#fff;fill-rule:nonzero;"/>
            </g>
            <g transform="matrix(8,0,0,8,93.3194,39.0447)">
                <path d="M0.094,-0.729l0.557,-0l-0.016,0.083l-0.229,0l-0.125,0.646l-0.1,-0l0.126,-0.646l-0.229,0l0.016,-0.083Z" style="fill:#fff;fill-rule:nonzero;"/>
            </g>
            <g transform="matrix(8,0,0,8,98.1358,39.0447)">
                <path d="M0.138,-0.729l0.099,-0l-0.058,0.299l0.27,-0l0.058,-0.299l0.099,-0l-0.142,0.729l-0.099,-0l0.068,-0.347l-0.271,-0l-0.067,0.347l-0.099,-0l0.142,-0.729Z" style="fill:#fff;fill-rule:nonzero;"/>
            </g>
        </g>
        <path d="M31.116,107.835l0,8" style="fill:none;stroke:#d08c59;stroke-width:0.75px;"/>
        <path d="M18.049,90.821l-2.999,4.235" style="fill:none;stroke:#d08c59;stroke-width:0.75px;"/>
        <path d="M171.756,90.812l-2.999,4.234" style="fill:none;stroke:#d08c59;stroke-width:0.75px;"/>
        <path d="M37.657,112.692l0.154,-0.738l1.916,-0l0.413,-1.929l0.751,-0l-0.413,1.929l1.916,-0l-0.154,0.738l-1.916,0l-0.408,1.925l-0.752,0l0.409,-1.925l-1.916,0Z" style="fill:#d08c59;fill-rule:nonzero;"/>
        <path d="M21.425,111.805l5.041,-0l-0.141,0.646l-5.04,-0l0.14,-0.646Z" style="fill:#d08c59;fill-rule:nonzero;"/>
        <path d="M82.567,284.529l-0.273,1.294l-5.454,0l1.528,-7.197l5.278,-0l-0.273,1.274l-3.809,0l-0.322,1.529l3.496,-0l-0.269,1.25l-3.496,-0l-0.39,1.85l3.984,0Z" style="fill:#fff;fill-rule:nonzero;"/>
        <path d="M87.782,285.823l-1.856,-5.112l-1.084,5.112l-1.401,0l1.528,-7.197l1.578,-0l1.796,5.024l1.07,-5.024l1.401,-0l-1.528,7.197l-1.504,0Z" style="fill:#fff;fill-rule:nonzero;"/>
        <path d="M93.69,284.09l2.739,-5.464l1.563,-0l-3.984,7.197l-1.421,0l-0.904,-7.197l1.607,-0l0.4,5.464Z" style="fill:#fff;fill-rule:nonzero;"/>
        <path d="M103.129,284.529l-0.274,1.294l-5.454,0l1.528,-7.197l5.279,-0l-0.274,1.274l-3.808,0l-0.323,1.529l3.497,-0l-0.269,1.25l-3.496,-0l-0.391,1.85l3.985,0Z" style="fill:#fff;fill-rule:nonzero;"/>
        <path d="M107.059,278.626l-1.255,5.903l3.565,0l-0.274,1.294l-5.068,0l1.528,-7.197l1.504,-0Z" style="fill:#fff;fill-rule:nonzero;"/>
        <path d="M117.074,279.246c0.586,0.661 0.739,1.65 0.459,2.969c-0.277,1.292 -0.851,2.282 -1.724,2.969c-0.661,0.559 -1.505,0.839 -2.534,0.839c-1.029,0 -1.756,-0.28 -2.183,-0.839c-0.582,-0.687 -0.735,-1.677 -0.459,-2.969c0.28,-1.319 0.855,-2.308 1.724,-2.969c0.661,-0.56 1.506,-0.84 2.534,-0.84c1.029,0 1.756,0.28 2.183,0.84Zm-2.451,0.435c-0.596,-0 -1.118,0.219 -1.565,0.659c-0.448,0.439 -0.758,1.064 -0.93,1.875c-0.173,0.81 -0.129,1.435 0.131,1.875c0.261,0.439 0.689,0.659 1.285,0.659c0.595,0 1.115,-0.22 1.56,-0.659c0.444,-0.44 0.752,-1.065 0.925,-1.875c0.169,-0.807 0.126,-1.432 -0.129,-1.873c-0.256,-0.441 -0.682,-0.661 -1.277,-0.661Z" style="fill:#fff;fill-rule:nonzero;"/>
        <path d="M124.222,279.183c0.349,0.371 0.441,0.945 0.279,1.723c-0.183,0.85 -0.526,1.45 -1.031,1.802c-0.504,0.352 -1.155,0.527 -1.953,0.527l-1.528,0l-0.547,2.588l-1.494,0l1.528,-7.197l3.135,-0c0.723,-0 1.26,0.186 1.611,0.557Zm-2.119,0.693l-1.401,-0l-0.449,2.119l1.401,0c0.355,0 0.649,-0.086 0.884,-0.259c0.234,-0.172 0.39,-0.446 0.469,-0.82c0.081,-0.374 0.039,-0.641 -0.125,-0.801c-0.164,-0.159 -0.424,-0.239 -0.779,-0.239Z" style="fill:#fff;fill-rule:nonzero;"/>
        <path d="M130.355,284.529l-0.273,1.294l-5.454,0l1.528,-7.197l5.278,-0l-0.273,1.274l-3.809,0l-0.322,1.529l3.496,-0l-0.268,1.25l-3.497,-0l-0.39,1.85l3.984,0Z" style="fill:#fff;fill-rule:nonzero;"/>
        <path d="M134.628,281.429l1.176,0.298c0.515,0.13 0.887,0.304 1.119,0.522c0.358,0.339 0.468,0.828 0.332,1.47c-0.14,0.657 -0.508,1.203 -1.104,1.638c-0.596,0.435 -1.352,0.652 -2.27,0.652c-0.938,-0 -1.63,-0.214 -2.076,-0.642c-0.446,-0.428 -0.589,-1.017 -0.429,-1.765l1.435,-0c-0.023,0.328 0.015,0.574 0.113,0.737c0.182,0.296 0.569,0.444 1.162,0.444c0.354,0 0.651,-0.039 0.888,-0.117c0.453,-0.15 0.721,-0.428 0.806,-0.835c0.052,-0.238 -0.013,-0.421 -0.195,-0.552c-0.179,-0.127 -0.482,-0.239 -0.909,-0.337l-0.727,-0.171c-0.713,-0.169 -1.191,-0.353 -1.436,-0.551c-0.413,-0.332 -0.545,-0.852 -0.395,-1.558c0.137,-0.644 0.485,-1.18 1.045,-1.606c0.56,-0.427 1.294,-0.64 2.202,-0.64c0.758,0 1.362,0.201 1.811,0.603c0.45,0.402 0.606,0.986 0.469,1.751l-1.445,-0c0.068,-0.433 -0.054,-0.741 -0.366,-0.923c-0.209,-0.121 -0.487,-0.181 -0.835,-0.181c-0.388,0 -0.714,0.078 -0.979,0.234c-0.266,0.157 -0.428,0.375 -0.486,0.655c-0.055,0.257 0.018,0.449 0.22,0.576c0.127,0.084 0.418,0.184 0.874,0.298Z" style="fill:#fff;fill-rule:nonzero;"/>
        <path d="M61.596,201.549l4.453,0l-0.129,0.664l-1.832,0l-1,5.168l-0.797,0l1.008,-5.168l-1.832,0l0.129,-0.664Z" style="fill:#fff;fill-rule:nonzero;"/>
        <path d="M68.651,204.627c0.187,0.037 0.337,0.124 0.451,0.262c0.113,0.138 0.24,0.438 0.381,0.898l0.472,1.594l-0.785,0l-0.414,-1.472c-0.115,-0.407 -0.243,-0.674 -0.385,-0.801c-0.142,-0.128 -0.356,-0.192 -0.642,-0.192l-0.75,0l-0.481,2.465l-0.793,0l1.129,-5.832l1.625,0c0.539,0 0.957,0.117 1.252,0.35c0.296,0.233 0.443,0.562 0.443,0.986c0,0.477 -0.134,0.871 -0.404,1.184c-0.269,0.312 -0.636,0.498 -1.099,0.558Zm-1.145,-2.429l-0.398,2.07l0.855,-0c0.425,-0 0.764,-0.111 1.018,-0.334c0.254,-0.223 0.381,-0.519 0.381,-0.889c-0,-0.291 -0.083,-0.506 -0.247,-0.642c-0.164,-0.137 -0.423,-0.205 -0.777,-0.205l-0.832,-0Z" style="fill:#fff;fill-rule:nonzero;"/>
        <path d="M71.826,201.549l3.243,0l-0.129,0.664l-1.227,0l-0.871,4.504l1.227,0l-0.129,0.664l-3.243,0l0.129,-0.664l1.223,0l0.875,-4.504l-1.227,0l0.129,-0.664Z" style="fill:#fff;fill-rule:nonzero;"/>
        <path d="M79.076,207.006c-0.226,0.162 -0.474,0.283 -0.742,0.365c-0.268,0.082 -0.555,0.123 -0.859,0.123c-0.604,0 -1.069,-0.175 -1.393,-0.525c-0.324,-0.35 -0.486,-0.85 -0.486,-1.498c-0,-0.234 0.021,-0.484 0.064,-0.748c0.043,-0.264 0.106,-0.541 0.19,-0.83c0.091,-0.305 0.198,-0.58 0.32,-0.826c0.123,-0.246 0.257,-0.457 0.402,-0.631c0.279,-0.339 0.587,-0.589 0.924,-0.75c0.338,-0.162 0.722,-0.242 1.155,-0.242c0.208,-0 0.416,0.027 0.623,0.082c0.207,0.054 0.41,0.134 0.611,0.238l-0.16,0.809c-0.169,-0.164 -0.347,-0.287 -0.533,-0.368c-0.187,-0.08 -0.385,-0.121 -0.596,-0.121c-0.255,0 -0.495,0.054 -0.719,0.162c-0.224,0.109 -0.424,0.268 -0.601,0.479c-0.115,0.135 -0.223,0.305 -0.325,0.508c-0.101,0.203 -0.191,0.431 -0.269,0.683c-0.089,0.297 -0.156,0.576 -0.201,0.836c-0.046,0.261 -0.069,0.496 -0.069,0.707c0,0.446 0.103,0.789 0.309,1.032c0.206,0.242 0.497,0.363 0.875,0.363c0.177,-0 0.336,-0.024 0.476,-0.072c0.141,-0.049 0.26,-0.118 0.356,-0.209l0.297,-1.536l-0.848,0l0.117,-0.648l1.602,0l-0.52,2.617Z" style="fill:#fff;fill-rule:nonzero;"/>
        <path d="M83.893,207.006c-0.227,0.162 -0.474,0.283 -0.742,0.365c-0.269,0.082 -0.555,0.123 -0.86,0.123c-0.604,0 -1.068,-0.175 -1.392,-0.525c-0.325,-0.35 -0.487,-0.85 -0.487,-1.498c0,-0.234 0.022,-0.484 0.065,-0.748c0.043,-0.264 0.106,-0.541 0.189,-0.83c0.091,-0.305 0.198,-0.58 0.321,-0.826c0.122,-0.246 0.256,-0.457 0.402,-0.631c0.279,-0.339 0.586,-0.589 0.924,-0.75c0.337,-0.162 0.722,-0.242 1.154,-0.242c0.208,-0 0.416,0.027 0.623,0.082c0.207,0.054 0.411,0.134 0.611,0.238l-0.16,0.809c-0.169,-0.164 -0.347,-0.287 -0.533,-0.368c-0.186,-0.08 -0.385,-0.121 -0.596,-0.121c-0.255,0 -0.494,0.054 -0.718,0.162c-0.224,0.109 -0.425,0.268 -0.602,0.479c-0.115,0.135 -0.223,0.305 -0.324,0.508c-0.102,0.203 -0.192,0.431 -0.27,0.683c-0.088,0.297 -0.155,0.576 -0.201,0.836c-0.046,0.261 -0.068,0.496 -0.068,0.707c-0,0.446 0.103,0.789 0.308,1.032c0.206,0.242 0.498,0.363 0.875,0.363c0.177,-0 0.336,-0.024 0.477,-0.072c0.14,-0.049 0.259,-0.118 0.355,-0.209l0.297,-1.536l-0.847,0l0.117,-0.648l1.601,0l-0.519,2.617Z" style="fill:#fff;fill-rule:nonzero;"/>
        <path d="M86.268,201.549l3.457,0l-0.129,0.664l-2.672,0l-0.336,1.727l2.551,-0l-0.125,0.664l-2.555,-0l-0.406,2.113l2.742,0l-0.129,0.664l-3.535,0l1.137,-5.832Z" style="fill:#fff;fill-rule:nonzero;"/>
        <path d="M92.733,204.627c0.187,0.037 0.338,0.124 0.451,0.262c0.113,0.138 0.24,0.438 0.381,0.898l0.472,1.594l-0.785,0l-0.414,-1.472c-0.114,-0.407 -0.243,-0.674 -0.385,-0.801c-0.142,-0.128 -0.356,-0.192 -0.642,-0.192l-0.75,0l-0.481,2.465l-0.793,0l1.129,-5.832l1.625,0c0.539,0 0.957,0.117 1.252,0.35c0.296,0.233 0.444,0.562 0.444,0.986c-0,0.477 -0.135,0.871 -0.405,1.184c-0.269,0.312 -0.636,0.498 -1.099,0.558Zm-1.145,-2.429l-0.398,2.07l0.855,-0c0.425,-0 0.764,-0.111 1.018,-0.334c0.254,-0.223 0.381,-0.519 0.381,-0.889c-0,-0.291 -0.082,-0.506 -0.247,-0.642c-0.164,-0.137 -0.423,-0.205 -0.777,-0.205l-0.832,-0Z" style="fill:#fff;fill-rule:nonzero;"/>
        <path d="M94.619,208.123l3.328,-6.574l0.747,0l-3.336,6.574l-0.739,0Z" style="fill:#fff;fill-rule:nonzero;"/>
        <path d="M103.158,207.006c-0.226,0.162 -0.474,0.283 -0.742,0.365c-0.268,0.082 -0.554,0.123 -0.859,0.123c-0.604,0 -1.069,-0.175 -1.393,-0.525c-0.324,-0.35 -0.486,-0.85 -0.486,-1.498c-0,-0.234 0.021,-0.484 0.064,-0.748c0.043,-0.264 0.107,-0.541 0.19,-0.83c0.091,-0.305 0.198,-0.58 0.32,-0.826c0.123,-0.246 0.257,-0.457 0.402,-0.631c0.279,-0.339 0.587,-0.589 0.924,-0.75c0.338,-0.162 0.722,-0.242 1.155,-0.242c0.208,-0 0.416,0.027 0.623,0.082c0.207,0.054 0.41,0.134 0.611,0.238l-0.16,0.809c-0.169,-0.164 -0.347,-0.287 -0.533,-0.368c-0.187,-0.08 -0.385,-0.121 -0.596,-0.121c-0.255,0 -0.495,0.054 -0.719,0.162c-0.224,0.109 -0.424,0.268 -0.601,0.479c-0.115,0.135 -0.223,0.305 -0.325,0.508c-0.101,0.203 -0.191,0.431 -0.269,0.683c-0.089,0.297 -0.156,0.576 -0.201,0.836c-0.046,0.261 -0.069,0.496 -0.069,0.707c0,0.446 0.103,0.789 0.309,1.032c0.206,0.242 0.497,0.363 0.875,0.363c0.177,-0 0.336,-0.024 0.476,-0.072c0.141,-0.049 0.26,-0.118 0.356,-0.209l0.297,-1.536l-0.848,0l0.117,-0.648l1.602,0l-0.52,2.617Z" style="fill:#fff;fill-rule:nonzero;"/>
        <path d="M107.061,202.205l-1.422,3.024l1.68,-0l-0.258,-3.024Zm-0.375,-0.656l0.961,0l0.648,5.832l-0.785,0l-0.137,-1.519l-2.031,-0l-0.719,1.519l-0.847,0l2.91,-5.832Z" style="fill:#fff;fill-rule:nonzero;"/>
        <path d="M109.76,201.549l4.453,0l-0.129,0.664l-1.832,0l-1,5.168l-0.797,0l1.008,-5.168l-1.832,0l0.129,-0.664Z" style="fill:#fff;fill-rule:nonzero;"/>
        <path d="M115.166,201.549l3.457,0l-0.129,0.664l-2.672,0l-0.335,1.727l2.55,-0l-0.125,0.664l-2.554,-0l-0.407,2.113l2.743,0l-0.129,0.664l-3.536,0l1.137,-5.832Z" style="fill:#fff;fill-rule:nonzero;"/>
        <path d="M124.807,201.549l3.242,0l-0.129,0.664l-1.226,0l-0.872,4.504l1.227,0l-0.129,0.664l-3.242,0l0.129,-0.664l1.222,0l0.875,-4.504l-1.226,0l0.129,-0.664Z" style="fill:#fff;fill-rule:nonzero;"/>
        <path d="M129.385,201.549l1,0l1.031,4.801l0.934,-4.801l0.762,0l-1.137,5.832l-1,0l-1.031,-4.801l-0.938,4.801l-0.758,0l1.137,-5.832Z" style="fill:#fff;fill-rule:nonzero;"/>
        <path d="M135.088,202.198l-0.426,2.191l0.914,0c0.43,0 0.773,-0.124 1.03,-0.373c0.256,-0.249 0.384,-0.58 0.384,-0.994c0,-0.281 -0.08,-0.489 -0.242,-0.623c-0.161,-0.134 -0.411,-0.201 -0.75,-0.201l-0.91,-0Zm-0.664,-0.649l1.719,0c0.536,0 0.945,0.12 1.226,0.36c0.282,0.239 0.422,0.585 0.422,1.039c0,0.648 -0.208,1.158 -0.625,1.531c-0.416,0.372 -0.989,0.558 -1.719,0.558l-0.91,0l-0.457,2.344l-0.793,0l1.137,-5.832Z" style="fill:#fff;fill-rule:nonzero;"/>
        <path d="M138.354,205.143l0.695,-3.594l0.793,0l-0.699,3.594c-0.005,0.034 -0.016,0.087 -0.031,0.16c-0.079,0.401 -0.118,0.678 -0.118,0.832c0,0.24 0.071,0.419 0.213,0.539c0.142,0.12 0.356,0.18 0.643,0.18c0.232,-0 0.428,-0.037 0.59,-0.111c0.161,-0.075 0.3,-0.193 0.418,-0.354c0.057,-0.081 0.115,-0.219 0.173,-0.416c0.059,-0.197 0.123,-0.473 0.194,-0.83l0.695,-3.594l0.793,0l-0.695,3.594c-0.11,0.57 -0.226,0.989 -0.35,1.256c-0.124,0.267 -0.287,0.482 -0.49,0.646c-0.185,0.146 -0.396,0.257 -0.633,0.334c-0.237,0.077 -0.493,0.115 -0.769,0.115c-0.5,0 -0.885,-0.117 -1.155,-0.351c-0.269,-0.234 -0.404,-0.568 -0.404,-1c-0,-0.096 0.011,-0.227 0.033,-0.391c0.022,-0.164 0.057,-0.367 0.104,-0.609Z" style="fill:#fff;fill-rule:nonzero;"/>
        <path d="M143.475,201.549l4.453,0l-0.129,0.664l-1.832,0l-1,5.168l-0.797,0l1.008,-5.168l-1.832,0l0.129,-0.664Z" style="fill:#fff;fill-rule:nonzero;"/>
        <path d="M152.018,201.748l-0.153,0.801c-0.211,-0.153 -0.429,-0.269 -0.656,-0.347c-0.226,-0.079 -0.461,-0.118 -0.703,-0.118c-0.43,0 -0.78,0.107 -1.051,0.321c-0.271,0.213 -0.406,0.485 -0.406,0.816c0,0.185 0.064,0.335 0.191,0.449c0.128,0.115 0.36,0.224 0.696,0.328l0.472,0.153c0.425,0.13 0.735,0.304 0.932,0.521c0.197,0.218 0.295,0.494 0.295,0.83c-0,0.612 -0.216,1.097 -0.648,1.455c-0.433,0.358 -1.023,0.537 -1.77,0.537c-0.271,0 -0.537,-0.029 -0.799,-0.087c-0.262,-0.059 -0.523,-0.147 -0.783,-0.264l0.16,-0.816c0.255,0.179 0.514,0.312 0.776,0.398c0.261,0.086 0.538,0.129 0.83,0.129c0.429,-0 0.778,-0.115 1.046,-0.344c0.269,-0.229 0.403,-0.519 0.403,-0.871c-0,-0.214 -0.057,-0.379 -0.172,-0.496c-0.115,-0.117 -0.345,-0.229 -0.691,-0.336l-0.395,-0.129c-0.479,-0.151 -0.814,-0.322 -1.006,-0.514c-0.191,-0.191 -0.287,-0.444 -0.287,-0.759c0,-0.576 0.215,-1.047 0.645,-1.412c0.429,-0.366 0.99,-0.549 1.683,-0.549c0.208,-0 0.43,0.026 0.666,0.078c0.236,0.052 0.477,0.127 0.725,0.226Z" style="fill:#fff;fill-rule:nonzero;"/>
        <path d="M94.042,338.895l0.258,-1.201l2.999,0l-0.821,3.862l-0.996,0l0.039,-0.898c-0.364,0.342 -0.677,0.583 -0.937,0.723c-0.45,0.244 -0.964,0.366 -1.543,0.366c-0.954,-0 -1.665,-0.331 -2.134,-0.991c-0.492,-0.665 -0.615,-1.573 -0.371,-2.725c0.247,-1.165 0.766,-2.1 1.557,-2.803c0.791,-0.703 1.714,-1.054 2.769,-1.054c0.915,-0 1.6,0.231 2.056,0.695c0.455,0.464 0.651,1.043 0.586,1.736l-1.48,0c-0.01,-0.491 -0.215,-0.835 -0.615,-1.03c-0.225,-0.108 -0.488,-0.161 -0.791,-0.161c-0.58,-0 -1.102,0.219 -1.568,0.656c-0.465,0.438 -0.792,1.097 -0.981,1.976c-0.186,0.885 -0.116,1.512 0.208,1.879c0.323,0.368 0.743,0.552 1.257,0.552c0.504,0 0.95,-0.145 1.335,-0.437c0.386,-0.291 0.665,-0.673 0.838,-1.145l-1.665,0Z" style="fill:#fff;fill-rule:nonzero;"/>
        <path d="M103.202,334.359l1.02,7.197l-1.63,0l-0.152,-1.479l-2.651,-0l-0.811,1.479l-1.572,0l4.097,-7.197l1.699,0Zm-1.216,1.646l-1.528,2.832l1.826,-0l-0.298,-2.832Z" style="fill:#fff;fill-rule:nonzero;"/>
        <path d="M105.79,335.633l0.273,-1.274l5.83,0l-0.273,1.274l-2.153,0l-1.255,5.923l-1.514,0l1.255,-5.923l-2.163,0Z" style="fill:#fff;fill-rule:nonzero;"/>
        <path d="M117.015,340.262l-0.273,1.294l-5.454,0l1.528,-7.197l5.278,0l-0.273,1.274l-3.809,0l-0.322,1.529l3.496,-0l-0.268,1.25l-3.496,-0l-0.391,1.85l3.984,0Z" style="fill:#fff;fill-rule:nonzero;"/>
        <path d="M121.288,337.162l1.177,0.298c0.514,0.13 0.887,0.304 1.118,0.522c0.358,0.339 0.468,0.829 0.332,1.47c-0.14,0.657 -0.508,1.203 -1.104,1.638c-0.595,0.435 -1.352,0.652 -2.27,0.652c-0.938,-0 -1.63,-0.214 -2.075,-0.642c-0.446,-0.428 -0.59,-1.017 -0.43,-1.765l1.435,-0c-0.022,0.328 0.015,0.574 0.113,0.737c0.182,0.296 0.569,0.444 1.162,0.444c0.355,0 0.651,-0.039 0.888,-0.117c0.453,-0.15 0.722,-0.428 0.806,-0.835c0.052,-0.238 -0.013,-0.421 -0.195,-0.552c-0.179,-0.127 -0.482,-0.239 -0.908,-0.337l-0.728,-0.17c-0.713,-0.17 -1.191,-0.354 -1.435,-0.552c-0.414,-0.332 -0.546,-0.851 -0.396,-1.558c0.137,-0.644 0.485,-1.18 1.045,-1.606c0.56,-0.427 1.294,-0.64 2.202,-0.64c0.759,0 1.362,0.201 1.812,0.603c0.449,0.402 0.605,0.986 0.468,1.751l-1.445,-0c0.068,-0.433 -0.054,-0.741 -0.366,-0.923c-0.208,-0.121 -0.487,-0.181 -0.835,-0.181c-0.387,0 -0.714,0.078 -0.979,0.234c-0.265,0.157 -0.427,0.375 -0.486,0.655c-0.055,0.257 0.018,0.449 0.22,0.576c0.127,0.085 0.418,0.184 0.874,0.298Z" style="fill:#fff;fill-rule:nonzero;"/>
    </g>
    <g>
        <circle id="SLANT" cx="82.559" cy="62.405" r="15" style="fill:#f00;"/>
        <ellipse id="SLANT1" serif:id="SLANT" cx="82.559" cy="155.241" rx="11.438" ry="11.341" style="fill:#0f0;"/>
        <ellipse id="SLANT_ATTEN" cx="82.559" cy="117.176" rx="11.438" ry="11.341" style="fill:#f00;"/>
        <circle id="CURVE" cx="134.225" cy="62.405" r="15" style="fill:#f00;"/>
        <ellipse id="CURVE1" serif:id="CURVE" cx="134.225" cy="155.241" rx="11.438" ry="11.341" style="fill:#0f0;"/>
        <ellipse id="CURVE_ATTEN" cx="134.225" cy="117.176" rx="11.438" ry="11.341" style="fill:#f00;"/>
        <circle id="TIME6" cx="184.783" cy="74.405" r="15" style="fill:#f00;"/>
        <ellipse id="TIME61" serif:id="TIME6" cx="184.783" cy="165.241" rx="11.438" ry="11.341" style="fill:#0f0;"/>
        <ellipse id="TIME6_ATTEN" cx="184.783" cy="127.176" rx="11.438" ry="11.341" style="fill:#f00;"/>
        <ellipse id="_1" serif:id="1" cx="19.388" cy="222.341" rx="11.438" ry="11.341" style="fill:#0f0;"/>
        <ellipse id="_2" serif:id="2" cx="54.497" cy="222.341" rx="11.438" ry="11.341" style="fill:#0f0;"/>
        <ellipse id="_3" serif:id="3" cx="89.607" cy="222.341" rx="11.438" ry="11.341" style="fill:#0f0;"/>
        <ellipse id="_4" serif:id="4" cx="124.716" cy="222.341" rx="11.438" ry="11.341" style="fill:#0f0;"/>
        <ellipse id="_5" serif:id="5" cx="159.825" cy="222.341" rx="11.438" ry="11.341" style="fill:#0f0;"/>
        <ellipse id="_6" serif:id="6" cx="194.934" cy="222.341" rx="11.438" ry="11.341" style="fill:#0f0;"/>
        <ellipse id="_11" serif:id="1" cx="19.388" cy="262.992" rx="11.438" ry="11.341" style="fill:#00f;"/>
        <ellipse id="EOF1" cx="19.388" cy="317.547" rx="11.438" ry="11.341" style="fill:#00f;"/>
        <ellipse id="_21" serif:id="2" cx="54.497" cy="262.992" rx="11.438" ry="11.341" style="fill:#00f;"/>
        <ellipse id="EOF2" cx="54.497" cy="317.547" rx="11.438" ry="11.341" style="fill:#00f;"/>
        <ellipse id="_31" serif:id="3" cx="89.607" cy="262.992" rx="11.438" ry="11.341" style="fill:#00f;"/>
        <ellipse id="EOF3" cx="89.607" cy="317.547" rx="11.438" ry="11.341" style="fill:#00f;"/>
        <ellipse id="_41" serif:id="4" cx="124.716" cy="262.992" rx="11.438" ry="11.341" style="fill:#00f;"/>
        <ellipse id="EOF4" cx="124.716" cy="317.547" rx="11.438" ry="11.341" style="fill:#00f;"/>
        <ellipse id="_51" serif:id="5" cx="159.825" cy="262.992" rx="11.438" ry="11.341" style="fill:#00f;"/>
        <ellipse id="EOF5" cx="159.825" cy="317.547" rx="11.438" ry="11.341" style="fill:#00f;"/>
        <ellipse id="_61" serif:id="6" cx="194.934" cy="262.992" rx="11.438" ry="11.341" style="fill:#00f;"/>
        <ellipse id="EOF6" cx="194.934" cy="317.547" rx="11.438" ry="11.341" style="fill:#00f;"/>
        <ellipse id="_12" serif:id="1" cx="19.388" cy="243.187" rx="4.286" ry="4.32" style="fill:#f0f;"/>
        <ellipse id="_22" serif:id="2" cx="54.666" cy="243.187" rx="4.286" ry="4.32" style="fill:#f0f;"/>
        <ellipse id="_32" serif:id="3" cx="89.608" cy="243.187" rx="4.286" ry="4.32" style="fill:#f0f;"/>
        <ellipse id="_42" serif:id="4" cx="124.55" cy="243.187" rx="4.286" ry="4.32" style="fill:#f0f;"/>
        <ellipse id="_52" serif:id="5" cx="159.492" cy="243.187" rx="4.286" ry="4.32" style="fill:#f0f;"/>
        <ellipse id="_62" serif:id="6" cx="194.934" cy="243.187" rx="4.286" ry="4.32" style="fill:#f0f;"/>
        <circle id="TIME1" cx="31.116" cy="74.405" r="15" style="fill:#f00;"/>
        <ellipse id="TIME11" serif:id="TIME1" cx="31.116" cy="165.241" rx="11.438" ry="11.341" style="fill:#0f0;"/>
        <ellipse id="TIME1_ATTEN" cx="31.116" cy="127.176" rx="11.438" ry="11.341" style="fill:#f00;"/>
        <ellipse id="_7" serif:id="7" cx="19.388" cy="299.187" rx="4.286" ry="4.32" style="fill:#f0f;"/>
        <ellipse id="_8" serif:id="8" cx="54.666" cy="299.187" rx="4.286" ry="4.32" style="fill:#f0f;"/>
        <ellipse id="_9" serif:id="9" cx="89.608" cy="299.187" rx="4.286" ry="4.32" style="fill:#f0f;"/>
        <ellipse id="_10" serif:id="10" cx="124.55" cy="299.187" rx="4.286" ry="4.32" style="fill:#f0f;"/>
        <ellipse id="_111" serif:id="11" cx="159.492" cy="299.187" rx="4.286" ry="4.32" style="fill:#f0f;"/>
        <ellipse id="_121" serif:id="12" cx="194.934" cy="299.387" rx="4.286" ry="4.32" style="fill:#f0f;"/>
    </g>
    <path d="M46.963,8.553l6.914,-0l-0.258,1.328l-5.344,-0l-0.672,3.453l5.102,-0l-0.25,1.328l-5.11,0l-0.812,4.227l5.484,-0l-0.257,1.328l-7.071,-0l2.274,-11.664Z" style="fill:#fff;fill-rule:nonzero;"/>
    <path d="M55.335,8.553l2,-0l2.062,9.601l1.867,-9.601l1.524,-0l-2.274,11.664l-2,-0l-2.062,-9.602l-1.875,9.602l-1.516,-0l2.274,-11.664Z" style="fill:#fff;fill-rule:nonzero;"/>
    <path d="M65.925,18.732l4.672,-10.179l1.68,-0l-5.617,11.664l-2.016,-0l-1.149,-11.664l1.547,-0l0.883,10.179Z" style="fill:#fff;fill-rule:nonzero;"/>
    <path d="M73.461,8.553l6.914,-0l-0.258,1.328l-5.343,-0l-0.672,3.453l5.101,-0l-0.25,1.328l-5.109,0l-0.813,4.227l5.485,-0l-0.258,1.328l-7.07,-0l2.273,-11.664Z" style="fill:#fff;fill-rule:nonzero;"/>
    <path d="M82.489,8.553l1.578,-0l-2.015,10.336l5.633,-0l-0.258,1.328l-7.211,-0l2.273,-11.664Z" style="fill:#fff;fill-rule:nonzero;"/>
    <path d="M92.361,19.162c0.443,0 0.852,-0.133 1.227,-0.398c0.375,-0.266 0.685,-0.646 0.929,-1.141c0.386,-0.755 0.698,-1.669 0.938,-2.742c0.239,-1.073 0.359,-2.104 0.359,-3.094c0,-0.74 -0.137,-1.285 -0.41,-1.637c-0.273,-0.351 -0.697,-0.527 -1.269,-0.527c-0.443,-0 -0.849,0.133 -1.219,0.398c-0.37,0.266 -0.677,0.646 -0.922,1.141c-0.396,0.766 -0.714,1.68 -0.953,2.742c-0.24,1.063 -0.36,2.089 -0.36,3.078c0,0.745 0.137,1.295 0.411,1.649c0.273,0.354 0.696,0.531 1.269,0.531Zm5.07,-6.914c0,0.573 -0.058,1.195 -0.175,1.867c-0.118,0.672 -0.288,1.362 -0.512,2.07c-0.151,0.48 -0.314,0.909 -0.488,1.29c-0.175,0.38 -0.364,0.723 -0.567,1.031c-0.458,0.661 -0.971,1.149 -1.539,1.465c-0.568,0.315 -1.229,0.472 -1.984,0.472c-1.047,0 -1.823,-0.32 -2.328,-0.961c-0.506,-0.64 -0.758,-1.627 -0.758,-2.961c-0,-0.578 0.056,-1.199 0.168,-1.863c0.112,-0.664 0.28,-1.35 0.504,-2.058c0.151,-0.48 0.314,-0.909 0.488,-1.29c0.174,-0.38 0.363,-0.724 0.566,-1.031c0.459,-0.661 0.972,-1.15 1.539,-1.465c0.568,-0.315 1.23,-0.472 1.985,-0.472c1.052,-0 1.832,0.319 2.34,0.957c0.507,0.638 0.761,1.621 0.761,2.949Z" style="fill:#fff;fill-rule:nonzero;"/>
    <path d="M101.272,9.85l-0.852,4.382l1.829,0c0.859,0 1.545,-0.248 2.058,-0.746c0.513,-0.497 0.77,-1.16 0.77,-1.988c-0,-0.563 -0.162,-0.978 -0.485,-1.246c-0.323,-0.268 -0.823,-0.402 -1.5,-0.402l-1.82,-0Zm-1.328,-1.297l3.437,-0c1.073,-0 1.891,0.239 2.454,0.718c0.562,0.48 0.843,1.172 0.843,2.079c0,1.296 -0.416,2.317 -1.25,3.062c-0.833,0.745 -1.979,1.117 -3.437,1.117l-1.821,0l-0.914,4.688l-1.586,-0l2.274,-11.664Z" style="fill:#fff;fill-rule:nonzero;"/>
    <path d="M108.792,8.553l6.914,-0l-0.257,1.328l-5.344,-0l-0.672,3.453l5.102,-0l-0.25,1.328l-5.11,0l-0.812,4.227l5.484,-0l-0.258,1.328l-7.07,-0l2.273,-11.664Z" style="fill:#fff;fill-rule:nonzero;"/>
    <path d="M129.513,9.865l-2.844,6.047l3.359,0l-0.515,-6.047Zm-0.75,-1.312l1.922,-0l1.296,11.664l-1.57,-0l-0.273,-3.039l-4.063,-0l-1.437,3.039l-1.696,-0l5.821,-11.664Z" style="fill:#fff;fill-rule:nonzero;"/>
    <path d="M138.588,14.709c0.375,0.073 0.675,0.247 0.902,0.523c0.227,0.276 0.48,0.875 0.762,1.797l0.945,3.188l-1.57,-0l-0.828,-2.946c-0.23,-0.812 -0.486,-1.346 -0.77,-1.601c-0.284,-0.255 -0.712,-0.383 -1.285,-0.383l-1.5,0l-0.961,4.93l-1.586,-0l2.258,-11.664l3.25,-0c1.078,-0 1.913,0.233 2.504,0.699c0.591,0.466 0.886,1.124 0.886,1.973c0,0.953 -0.269,1.742 -0.808,2.367c-0.539,0.625 -1.272,0.997 -2.199,1.117Zm-2.289,-4.859l-0.797,4.14l1.711,0c0.849,0 1.527,-0.223 2.035,-0.668c0.508,-0.445 0.762,-1.038 0.762,-1.777c-0,-0.584 -0.165,-1.012 -0.493,-1.285c-0.328,-0.274 -0.846,-0.41 -1.554,-0.41l-1.664,-0Z" style="fill:#fff;fill-rule:nonzero;"/>
    <path d="M147.42,14.709c0.375,0.073 0.676,0.247 0.903,0.523c0.226,0.276 0.48,0.875 0.762,1.797l0.945,3.188l-1.57,-0l-0.829,-2.946c-0.229,-0.812 -0.485,-1.346 -0.769,-1.601c-0.284,-0.255 -0.712,-0.383 -1.285,-0.383l-1.5,0l-0.961,4.93l-1.586,-0l2.258,-11.664l3.25,-0c1.078,-0 1.912,0.233 2.504,0.699c0.591,0.466 0.886,1.124 0.886,1.973c0,0.953 -0.269,1.742 -0.808,2.367c-0.539,0.625 -1.272,0.997 -2.2,1.117Zm-2.289,-4.859l-0.796,4.14l1.71,0c0.849,0 1.528,-0.223 2.036,-0.668c0.507,-0.445 0.761,-1.038 0.761,-1.777c0,-0.584 -0.164,-1.012 -0.492,-1.285c-0.328,-0.274 -0.846,-0.41 -1.555,-0.41l-1.664,-0Z" style="fill:#fff;fill-rule:nonzero;"/>
    <path d="M156.011,9.865l-2.844,6.047l3.36,0l-0.516,-6.047Zm-0.75,-1.312l1.922,-0l1.297,11.664l-1.57,-0l-0.274,-3.039l-4.062,-0l-1.438,3.039l-1.695,-0l5.82,-11.664Z" style="fill:#fff;fill-rule:nonzero;"/>
    <path d="M160.625,8.553l1.578,-0l1.844,5.086l3.883,-5.086l1.703,-0l-4.961,6.429l-1.008,5.235l-1.617,-0l1.023,-5.235l-2.445,-6.429Z" style="fill:#fff;fill-rule:nonzero;"/>
</svg>
