<?xml version="1.0" encoding="UTF-8" standalone="no"?>
<!-- Created with Inkscape (http://www.inkscape.org/) -->

<svg
   width="50.799999mm"
   height="128.5mm"
   viewBox="0 0 50.800003 128.50002"
   version="1.1"
   id="svg8"
   inkscape:version="1.3.2 (091e20e, 2023-11-25)"
   sodipodi:docname="ComparatorStepper.svg"
   xmlns:inkscape="http://www.inkscape.org/namespaces/inkscape"
   xmlns:sodipodi="http://sodipodi.sourceforge.net/DTD/sodipodi-0.dtd"
   xmlns="http://www.w3.org/2000/svg"
   xmlns:svg="http://www.w3.org/2000/svg"
   xmlns:rdf="http://www.w3.org/1999/02/22-rdf-syntax-ns#"
   xmlns:cc="http://creativecommons.org/ns#"
   xmlns:dc="http://purl.org/dc/elements/1.1/"
   xmlns:serif="http://www.serif.com/">
  <defs
     id="defs2">
    <linearGradient
       id="_Linear1"
       x1="0"
       y1="0"
       x2="1"
       y2="-0.0028738601"
       gradientUnits="userSpaceOnUse"
       gradientTransform="matrix(75.07254,292.27101,-293.02254,74.879903,36.973994,42.144002)">
      <stop
         offset="0"
         style="stop-color:#e6e6e6;stop-opacity:1"
         id="stop1" />
      <stop
         offset="1"
         style="stop-color:#e6e6e6;stop-opacity:0"
         id="stop2" />
    </linearGradient>
  </defs>
  <sodipodi:namedview
     id="base"
     pagecolor="#ffffff"
     bordercolor="#666666"
     borderopacity="1.0"
     inkscape:pageopacity="0.0"
     inkscape:pageshadow="2"
     inkscape:zoom="1.6143513"
     inkscape:cx="26.945808"
     inkscape:cy="235.38867"
     inkscape:document-units="mm"
     inkscape:current-layer="Layer-1"
     showgrid="false"
     units="mm"
     inkscape:snap-bbox="true"
     inkscape:snap-page="true"
     inkscape:bbox-nodes="false"
     inkscape:snap-bbox-edge-midpoints="false"
     inkscape:window-width="1728"
     inkscape:window-height="995"
     inkscape:window-x="0"
     inkscape:window-y="38"
     inkscape:window-maximized="0"
     inkscape:snap-bbox-midpoints="true"
     inkscape:snap-nodes="false"
     inkscape:showpageshadow="2"
     inkscape:pagecheckerboard="0"
     inkscape:deskcolor="#d1d1d1" />
  <metadata
     id="metadata5">
    <rdf:RDF>
      <cc:Work
         rdf:about="">
        <dc:format>image/svg+xml</dc:format>
        <dc:type
           rdf:resource="http://purl.org/dc/dcmitype/StillImage" />
      </cc:Work>
    </rdf:RDF>
  </metadata>
  <g
     id="Layer-1"
     serif:id="Layer 1"
     inkscape:label="Layer-1"
     style="display:inline;clip-rule:evenodd;fill-rule:evenodd;stroke-linejoin:round;stroke-miterlimit:1.5"
     transform="matrix(0.35218703,0,0,0.35218703,-0.14448233,0.21828159)">
    <g
       id="rect420"
       transform="matrix(1.0031899,0,0,1.0025404,-0.00194905,0.00194087)"
       style="fill:#e6e6e6;fill-opacity:1">
      <rect
         id="rect1-1"
         x="0.611"
         y="-0.764"
         width="143.23801"
         height="364.19501"
         style="fill:#e6e6e6;fill-opacity:1" />
      <rect
         id="rect1"
         x="1.204"
         y="0.177"
         width="145.29176"
         height="365.42694"
         style="fill:#e6e6e6;stroke-width:1.00427;fill-opacity:1" />
    </g>
    <g
       id="path111"
       style="stroke-width:1;stroke-dasharray:none"
       transform="matrix(1.0533459,0,0,0.99999176,-5.4322055,0.00104972)">
      <path
         id="path108"
         d="m 136.235,56.439 v 121.3 c 0,6.508 -2.309,10.642 -9.901,10.642 h -15.549 c -4.549,0 -8.187,2.298 -8.463,8.467 -0.002,0.088 -0.005,0.667 -0.002,1.428"
         style="fill:none;stroke:#000000;stroke-width:1;stroke-dasharray:none" />
    </g>
    <g
       id="g2"
       style="fill:#666666;stroke:#000000;stroke-opacity:1">
      <path
         id="path1"
         d="m 138.122,51.249 c 0,-4.9 -3.899,-8.878 -8.702,-8.878 h -15.134 c -4.804,0 -8.704,3.978 -8.704,8.878 v 47.233 c 0,4.9 3.9,8.878 8.704,8.878 h 15.134 c 4.803,0 8.702,-3.978 8.702,-8.878 z"
         style="fill:#666666;stroke:#000000;stroke-opacity:1" />
    </g>
    <path
       id="path5"
       d="m 36.091,20.148 c -0.377,0.186 -0.768,0.33 -1.159,0.429 -0.391,0.1 -0.782,0.142 -1.201,0.142 -1.049,0 -1.859,-0.3 -2.432,-0.928 -0.573,-0.613 -0.866,-1.484 -0.866,-2.598 0,-1.028 0.167,-2.028 0.475,-3.041 0.321,-1 0.74,-1.828 1.258,-2.455 0.489,-0.6 1.019,-1.058 1.606,-1.343 0.587,-0.286 1.258,-0.428 2.012,-0.428 0.363,0 0.727,0.042 1.089,0.142 0.35,0.1 0.699,0.243 1.048,0.429 l -0.279,1.442 c -0.294,-0.3 -0.601,-0.514 -0.922,-0.657 -0.321,-0.143 -0.671,-0.214 -1.034,-0.214 -0.433,0 -0.824,0.085 -1.202,0.285 -0.363,0.186 -0.712,0.471 -1.033,0.858 -0.475,0.571 -0.853,1.299 -1.146,2.198 -0.279,0.885 -0.433,1.784 -0.433,2.684 0,0.8 0.182,1.414 0.531,1.842 0.363,0.429 0.865,0.643 1.537,0.643 0.391,0 0.783,-0.071 1.2,-0.229 0.406,-0.142 0.812,-0.356 1.217,-0.642 z"
       style="fill-rule:nonzero;stroke:#231f20;stroke-width:0.29px;stroke-miterlimit:2" />
    <path
       id="path6"
       d="m 41.485,19.577 c 0.391,0 0.741,-0.114 1.076,-0.357 0.322,-0.227 0.601,-0.571 0.81,-1.013 0.336,-0.672 0.615,-1.485 0.81,-2.442 0.21,-0.971 0.322,-1.885 0.322,-2.77 0,-0.656 -0.126,-1.142 -0.363,-1.456 -0.237,-0.314 -0.601,-0.471 -1.104,-0.471 -0.391,0 -0.74,0.114 -1.062,0.357 -0.321,0.228 -0.601,0.572 -0.81,1.013 -0.349,0.685 -0.615,1.499 -0.825,2.441 -0.209,0.958 -0.32,1.871 -0.32,2.756 0,0.658 0.124,1.157 0.362,1.47 0.239,0.314 0.601,0.472 1.104,0.472 z m 4.429,-6.168 c 0,0.514 -0.056,1.07 -0.154,1.67 -0.098,0.6 -0.251,1.214 -0.447,1.843 -0.125,0.428 -0.279,0.813 -0.419,1.156 -0.154,0.329 -0.321,0.643 -0.503,0.915 -0.405,0.584 -0.852,1.026 -1.341,1.312 -0.503,0.272 -1.076,0.414 -1.733,0.414 -0.922,0 -1.592,-0.286 -2.039,-0.857 -0.434,-0.569 -0.657,-1.455 -0.657,-2.64 0,-0.514 0.056,-1.072 0.154,-1.657 0.098,-0.6 0.237,-1.213 0.433,-1.842 0.126,-0.429 0.278,-0.813 0.433,-1.156 0.14,-0.328 0.307,-0.643 0.489,-0.914 0.405,-0.585 0.852,-1.028 1.341,-1.314 0.503,-0.271 1.076,-0.414 1.732,-0.414 0.923,0 1.607,0.286 2.04,0.857 0.448,0.571 0.671,1.442 0.671,2.627 z"
       style="fill-rule:nonzero;stroke:#231f20;stroke-width:0.29px;stroke-miterlimit:2" />
    <path
       id="path7"
       d="m 48.038,10.111 h 1.831 l 0.755,5.268 2.822,-5.268 h 1.845 l -1.985,10.408 h -1.272 l 1.761,-9.251 -2.962,5.54 h -0.964 l -0.783,-5.54 -1.746,9.251 h -1.272 z"
       style="fill-rule:nonzero;stroke:#231f20;stroke-width:0.29px;stroke-miterlimit:2" />
    <path
       id="path8"
       d="m 58.378,11.268 -0.74,3.911 h 1.593 c 0.753,0 1.354,-0.228 1.802,-0.671 0.447,-0.442 0.67,-1.028 0.67,-1.769 0,-0.5 -0.139,-0.871 -0.419,-1.115 -0.293,-0.242 -0.726,-0.356 -1.312,-0.356 z m -1.16,-1.157 h 3.004 c 0.937,0 1.648,0.214 2.137,0.643 0.49,0.428 0.741,1.043 0.741,1.856 0,1.156 -0.362,2.069 -1.089,2.727 -0.727,0.671 -1.732,1 -3.005,1 h -1.591 l -0.797,4.182 h -1.383 z"
       style="fill-rule:nonzero;stroke:#231f20;stroke-width:0.29px;stroke-miterlimit:2" />
    <path
       id="path9"
       d="m 68.312,11.282 -2.487,5.397 h 2.934 z m -0.657,-1.171 h 1.676 l 1.133,10.408 h -1.37 l -0.237,-2.712 h -3.549 l -1.257,2.712 H 62.57 Z"
       style="fill-rule:nonzero;stroke:#231f20;stroke-width:0.29px;stroke-miterlimit:2" />
    <path
       id="path10"
       d="m 76.933,15.608 c 0.322,0.057 0.586,0.214 0.783,0.457 0.209,0.257 0.419,0.785 0.67,1.614 l 0.824,2.84 h -1.368 l -0.727,-2.626 c -0.195,-0.729 -0.42,-1.2 -0.671,-1.429 -0.251,-0.227 -0.614,-0.342 -1.118,-0.342 h -1.314 l -0.838,4.397 h -1.383 l 1.971,-10.408 h 2.836 c 0.935,0 1.676,0.214 2.194,0.628 0.516,0.414 0.768,1 0.768,1.756 0,0.857 -0.238,1.557 -0.713,2.113 -0.461,0.557 -1.103,0.886 -1.914,1 z m -1.998,-4.34 -0.699,3.697 h 1.496 c 0.74,0 1.341,-0.199 1.775,-0.6 0.446,-0.399 0.669,-0.928 0.669,-1.583 0,-0.514 -0.139,-0.9 -0.432,-1.143 -0.28,-0.243 -0.741,-0.371 -1.356,-0.371 z"
       style="fill-rule:nonzero;stroke:#231f20;stroke-width:0.29px;stroke-miterlimit:2" />
    <path
       id="path11"
       d="m 85.135,11.282 -2.486,5.397 h 2.933 z m -0.656,-1.171 h 1.676 l 1.132,10.408 h -1.37 L 85.68,17.807 h -3.549 l -1.256,2.712 h -1.481 z"
       style="fill-rule:nonzero;stroke:#231f20;stroke-width:0.29px;stroke-miterlimit:2" />
    <path
       id="path12"
       d="m 89.844,10.111 h 7.782 l -0.223,1.186 h -3.199 l -1.747,9.222 h -1.398 l 1.762,-9.222 H 89.62 Z"
       style="fill-rule:nonzero;stroke:#231f20;stroke-width:0.29px;stroke-miterlimit:2" />
    <path
       id="path13"
       d="m 100.366,19.577 c 0.391,0 0.74,-0.114 1.076,-0.357 0.321,-0.227 0.6,-0.571 0.81,-1.013 0.335,-0.672 0.614,-1.485 0.81,-2.442 0.209,-0.971 0.322,-1.885 0.322,-2.77 0,-0.656 -0.126,-1.142 -0.364,-1.456 -0.238,-0.314 -0.601,-0.471 -1.103,-0.471 -0.392,0 -0.74,0.114 -1.062,0.357 -0.321,0.228 -0.601,0.572 -0.811,1.013 -0.349,0.685 -0.614,1.499 -0.824,2.441 -0.21,0.958 -0.321,1.871 -0.321,2.756 0,0.658 0.125,1.157 0.362,1.47 0.238,0.314 0.602,0.472 1.105,0.472 z m 4.429,-6.168 c 0,0.514 -0.057,1.07 -0.154,1.67 -0.098,0.6 -0.252,1.214 -0.448,1.843 -0.125,0.428 -0.278,0.813 -0.418,1.156 -0.154,0.329 -0.322,0.643 -0.504,0.915 -0.405,0.584 -0.852,1.026 -1.34,1.312 -0.504,0.272 -1.076,0.414 -1.733,0.414 -0.922,0 -1.593,-0.286 -2.039,-0.857 -0.434,-0.569 -0.657,-1.455 -0.657,-2.64 0,-0.514 0.056,-1.072 0.154,-1.657 0.098,-0.6 0.237,-1.213 0.433,-1.842 0.125,-0.429 0.278,-0.813 0.432,-1.156 0.14,-0.328 0.308,-0.643 0.489,-0.914 0.405,-0.585 0.853,-1.028 1.342,-1.314 0.503,-0.271 1.075,-0.414 1.732,-0.414 0.922,0 1.607,0.286 2.04,0.857 0.448,0.571 0.671,1.442 0.671,2.627 z"
       style="fill-rule:nonzero;stroke:#231f20;stroke-width:0.29px;stroke-miterlimit:2" />
    <path
       id="path14"
       d="m 110.578,15.608 c 0.322,0.057 0.587,0.214 0.783,0.457 0.209,0.257 0.42,0.785 0.67,1.614 l 0.825,2.84 h -1.369 l -0.727,-2.626 c -0.196,-0.729 -0.419,-1.2 -0.671,-1.429 -0.251,-0.227 -0.614,-0.342 -1.117,-0.342 h -1.313 l -0.839,4.397 h -1.383 l 1.97,-10.408 h 2.836 c 0.937,0 1.677,0.214 2.194,0.628 0.517,0.414 0.768,1 0.768,1.756 0,0.857 -0.237,1.557 -0.712,2.113 -0.462,0.557 -1.104,0.886 -1.915,1 z m -1.996,-4.34 -0.7,3.697 h 1.495 c 0.74,0 1.341,-0.199 1.775,-0.6 0.447,-0.399 0.67,-0.928 0.67,-1.583 0,-0.514 -0.139,-0.9 -0.433,-1.143 -0.28,-0.243 -0.741,-0.371 -1.355,-0.371 z"
       style="fill-rule:nonzero;stroke:#231f20;stroke-width:0.29px;stroke-miterlimit:2" />
    <path
       id="path15"
       d="m 50.092,24.746 -0.266,1.427 c -0.363,-0.271 -0.755,-0.484 -1.146,-0.613 -0.391,-0.142 -0.81,-0.214 -1.23,-0.214 -0.754,0 -1.354,0.185 -1.829,0.572 -0.476,0.385 -0.713,0.87 -0.713,1.455 0,0.328 0.112,0.6 0.335,0.8 0.223,0.2 0.629,0.4 1.215,0.585 l 0.825,0.271 c 0.741,0.229 1.286,0.543 1.622,0.929 0.348,0.4 0.515,0.885 0.515,1.485 0,1.099 -0.376,1.956 -1.131,2.597 -0.754,0.643 -1.788,0.958 -3.087,0.958 -0.476,0 -0.936,-0.058 -1.397,-0.158 -0.462,-0.1 -0.909,-0.256 -1.37,-0.47 l 0.279,-1.456 c 0.448,0.327 0.895,0.556 1.356,0.714 0.461,0.156 0.936,0.228 1.453,0.228 0.755,0 1.355,-0.2 1.829,-0.614 0.462,-0.414 0.7,-0.928 0.7,-1.557 0,-0.371 -0.098,-0.671 -0.294,-0.885 -0.21,-0.2 -0.614,-0.4 -1.215,-0.6 L 45.859,29.972 C 45.02,29.7 44.433,29.4 44.097,29.058 c -0.335,-0.343 -0.503,-0.8 -0.503,-1.355 0,-1.029 0.379,-1.871 1.132,-2.529 0.74,-0.642 1.732,-0.97 2.935,-0.97 0.363,0 0.754,0.043 1.16,0.143 0.418,0.085 0.837,0.228 1.271,0.4 z"
       style="fill-rule:nonzero;stroke:#231f20;stroke-width:0.29px;stroke-miterlimit:2" />
    <path
       id="path16"
       d="m 51.992,24.389 h 7.783 l -0.224,1.185 h -3.199 l -1.747,9.223 h -1.397 l 1.761,-9.223 H 51.77 Z"
       style="fill-rule:nonzero;stroke:#231f20;stroke-width:0.29px;stroke-miterlimit:2" />
    <path
       id="path17"
       d="m 61.438,24.389 h 6.036 l -0.224,1.185 h -4.666 l -0.587,3.084 h 4.457 l -0.224,1.185 h -4.457 l -0.712,3.768 h 4.792 l -0.224,1.186 h -6.175 z"
       style="fill-rule:nonzero;stroke:#231f20;stroke-width:0.29px;stroke-miterlimit:2" />
    <path
       id="path18"
       d="m 70.996,25.546 -0.741,3.912 h 1.593 c 0.753,0 1.355,-0.229 1.802,-0.672 0.447,-0.442 0.67,-1.028 0.67,-1.771 0,-0.5 -0.14,-0.871 -0.418,-1.113 -0.294,-0.242 -0.728,-0.357 -1.314,-0.357 z m -1.161,-1.157 h 3.005 c 0.935,0 1.648,0.214 2.137,0.642 0.489,0.429 0.74,1.042 0.74,1.856 0,1.157 -0.363,2.071 -1.089,2.728 -0.726,0.67 -1.733,0.999 -3.004,0.999 h -1.593 l -0.796,4.183 h -1.384 z"
       style="fill-rule:nonzero;stroke:#231f20;stroke-width:0.29px;stroke-miterlimit:2" />
    <path
       id="path19"
       d="m 79.406,25.546 -0.74,3.912 h 1.593 c 0.755,0 1.355,-0.229 1.803,-0.672 0.446,-0.442 0.67,-1.028 0.67,-1.771 0,-0.5 -0.139,-0.871 -0.419,-1.113 C 82.02,25.66 81.586,25.545 81,25.545 Z m -1.158,-1.157 h 3.003 c 0.937,0 1.649,0.214 2.138,0.642 0.489,0.429 0.741,1.042 0.741,1.856 0,1.157 -0.364,2.071 -1.09,2.728 -0.727,0.67 -1.733,0.999 -3.004,0.999 h -1.593 l -0.796,4.183 h -1.383 z"
       style="fill-rule:nonzero;stroke:#231f20;stroke-width:0.29px;stroke-miterlimit:2" />
    <path
       id="path20"
       d="m 86.672,24.389 h 6.035 l -0.223,1.185 h -4.666 l -0.587,3.084 h 4.457 l -0.224,1.185 h -4.457 l -0.713,3.768 h 4.793 l -0.224,1.186 h -6.175 z"
       style="fill-rule:nonzero;stroke:#231f20;stroke-width:0.29px;stroke-miterlimit:2" />
    <path
       id="path21"
       d="m 97.962,29.886 c 0.321,0.057 0.587,0.214 0.783,0.457 0.209,0.257 0.418,0.786 0.669,1.613 l 0.825,2.841 H 98.87 l -0.726,-2.626 c -0.196,-0.729 -0.42,-1.2 -0.671,-1.428 C 97.221,30.514 96.858,30.4 96.355,30.4 h -1.313 l -0.838,4.397 h -1.383 l 1.97,-10.408 h 2.835 c 0.936,0 1.677,0.214 2.193,0.629 0.518,0.413 0.769,0.999 0.769,1.756 0,0.856 -0.237,1.555 -0.712,2.112 -0.462,0.557 -1.104,0.885 -1.914,1 z m -1.999,-4.34 -0.698,3.697 h 1.495 c 0.741,0 1.341,-0.199 1.774,-0.599 0.448,-0.4 0.671,-0.929 0.671,-1.585 0,-0.515 -0.139,-0.9 -0.433,-1.143 -0.279,-0.242 -0.741,-0.371 -1.355,-0.371 z"
       style="fill-rule:nonzero;stroke:#231f20;stroke-width:0.29px;stroke-miterlimit:2" />
    <g
       id="path23"
       transform="translate(0.81437837,-0.22904392)">
      <path
         id="path2"
         d="m 48.47,244.36 -2.759,-0.712 0.697,-2.82"
         style="fill:none;stroke:#000000;stroke-width:0.85px;stroke-linejoin:miter;stroke-miterlimit:10" />
    </g>
    <g
       id="g4">
      <g
         id="path24">
        <path
           id="path3"
           d="m 28.719,243.829 c -6.494,-3.704 -12.512,-11.518 -12.512,-19.447 0,-11.753 9.525,-21.295 21.258,-21.295 11.732,0 21.257,9.542 21.257,21.295 0,7.615 -5.82,15.063 -11.909,18.861"
           style="fill:none;stroke:#000000;stroke-width:0.7px" />
      </g>
      <g
         id="path25">
        <path
           id="path4"
           d="m 25.798,241.778 -1.853,2.969 c -0.105,-0.068 -0.208,-0.136 -0.311,-0.205 l 1.894,-2.94 c 0.091,0.059 0.179,0.119 0.27,0.176 z m -6.315,-6.348 -2.877,1.938 c -0.07,-0.105 -0.135,-0.211 -0.204,-0.318 l 2.909,-1.893 c 0.054,0.091 0.112,0.182 0.172,0.273 z m -3.172,-8.422 -3.408,0.522 c -0.018,-0.124 -0.037,-0.249 -0.05,-0.374 l 3.412,-0.469 c 0.014,0.106 0.03,0.214 0.046,0.321 z m 0.604,-9 -3.306,-0.994 c 0.038,-0.122 0.072,-0.243 0.11,-0.363 l 3.29,1.047 c -0.033,0.103 -0.063,0.206 -0.094,0.31 z m 4.271,-7.897 -2.589,-2.324 c 0.082,-0.095 0.164,-0.19 0.246,-0.284 l 2.554,2.364 c -0.072,0.081 -0.14,0.162 -0.211,0.244 z m 7.11,-5.399 -1.436,-3.202 c 0.112,-0.052 0.224,-0.104 0.34,-0.154 l 1.384,3.222 c -0.095,0.044 -0.192,0.089 -0.288,0.134 z m 8.649,-1.983 -0.044,-3.52 c 0.124,-0.002 0.247,-0.003 0.37,-0.002 l -0.008,3.52 c -0.105,0 -0.213,0 -0.318,0.002 z m 8.714,1.728 1.337,-3.244 c 0.112,0.048 0.227,0.099 0.34,0.149 l -1.385,3.224 c -0.099,-0.043 -0.195,-0.087 -0.292,-0.129 z m 7.273,5.172 2.514,-2.409 c 0.085,0.092 0.167,0.185 0.249,0.277 l -2.547,2.371 c -0.071,-0.08 -0.142,-0.16 -0.216,-0.239 z m 4.559,7.745 3.262,-1.129 c 0.039,0.12 0.08,0.24 0.116,0.36 l -3.279,1.077 c -0.032,-0.103 -0.067,-0.206 -0.099,-0.308 z m 0.947,8.966 3.422,0.387 c -0.013,0.126 -0.026,0.252 -0.042,0.378 L 58.4,226.663 c 0.011,-0.107 0.026,-0.214 0.038,-0.323 z m -2.847,8.537 2.944,1.83 c -0.065,0.109 -0.129,0.216 -0.196,0.323 l -2.915,-1.877 c 0.057,-0.091 0.111,-0.183 0.167,-0.276 z m -6.1,6.548 1.942,2.909 c -0.102,0.071 -0.206,0.141 -0.307,0.211 l -1.9,-2.938 c 0.089,-0.06 0.176,-0.12 0.265,-0.182 z" />
      </g>
    </g>
    <g
       id="g5">
      <path
         id="path26"
         d="m 93.93,156.807 -1.926,2.899 c -0.103,-0.071 -0.203,-0.142 -0.304,-0.214 l 1.967,-2.869 c 0.089,0.062 0.175,0.123 0.263,0.184 z m -6.886,-7.908 -3.047,1.612 c -0.056,-0.112 -0.111,-0.225 -0.167,-0.338 l 3.069,-1.563 c 0.048,0.098 0.097,0.193 0.145,0.289 z m -2.271,-10.288 -3.427,-0.126 c 0.005,-0.125 0.009,-0.251 0.017,-0.377 l 3.423,0.18 c -0.005,0.107 -0.011,0.215 -0.013,0.323 z m 2.969,-10.101 -2.924,-1.831 c 0.063,-0.108 0.13,-0.214 0.198,-0.32 l 2.895,1.877 c -0.057,0.091 -0.113,0.182 -0.169,0.274 z m 7.436,-7.354 -1.701,-3.04 c 0.105,-0.063 0.21,-0.125 0.319,-0.185 l 1.661,3.066 c -0.094,0.052 -0.187,0.105 -0.279,0.159 z m 9.982,-2.865 -0.097,-3.503 c 0.124,-0.003 0.247,-0.005 0.368,-0.008 l 0.047,3.505 c -0.104,0.001 -0.21,0.004 -0.318,0.006 z m 10.145,2.245 1.515,-3.144 c 0.111,0.056 0.223,0.112 0.33,0.169 l -1.558,3.121 c -0.097,-0.049 -0.191,-0.098 -0.287,-0.146 z m 7.902,6.854 2.792,-2.034 c 0.073,0.101 0.142,0.204 0.211,0.308 l -2.822,1.991 c -0.058,-0.089 -0.12,-0.177 -0.181,-0.265 z m 3.703,9.855 3.408,-0.384 c 0.013,0.125 0.025,0.25 0.036,0.376 l -3.411,0.329 c -0.013,-0.107 -0.024,-0.214 -0.033,-0.321 z m -1.512,10.434 3.152,1.378 c -0.046,0.116 -0.096,0.231 -0.146,0.347 l -3.13,-1.429 c 0.041,-0.099 0.082,-0.197 0.124,-0.296 z m -6.334,8.347 2.104,2.769 c -0.098,0.077 -0.195,0.153 -0.293,0.229 l -2.064,-2.802 c 0.088,-0.065 0.169,-0.13 0.253,-0.196 z" />
      <path
         id="path40"
         d="m 119.461,158.442 -2.259,-0.575 0.562,-2.308"
         style="fill:none;stroke:#000000;stroke-width:0.7px;stroke-linejoin:miter;stroke-miterlimit:10" />
      <path
         id="path41"
         d="m 93.499,156.969 c -5.24,-3.882 -8.641,-10.136 -8.641,-17.187 0,-11.765 9.475,-21.317 21.148,-21.317 11.673,0 21.15,9.552 21.15,21.317 0,6.064 -2.518,11.54 -6.556,15.424 -1.038,0.998 -2.176,1.891 -3.398,2.661"
         style="fill:none;stroke:#000000;stroke-width:0.7px" />
    </g>
    <g
       id="g6">
      <path
         id="path27"
         d="m 22.339,154.139 -2.414,2.541 c -0.091,-0.089 -0.178,-0.177 -0.266,-0.267 l 2.449,-2.506 c 0.079,0.079 0.153,0.155 0.231,0.232 z m -5.302,-8.484 -3.274,1.162 c -0.04,-0.12 -0.08,-0.24 -0.119,-0.36 l 3.292,-1.113 c 0.034,0.105 0.066,0.207 0.101,0.311 z m -0.928,-9.986 -3.429,-0.522 c 0.02,-0.125 0.039,-0.25 0.06,-0.376 l 3.42,0.576 c -0.018,0.106 -0.033,0.215 -0.051,0.322 z m 3.713,-9.284 -2.797,-2.087 c 0.071,-0.104 0.146,-0.205 0.219,-0.307 l 2.77,2.132 c -0.064,0.087 -0.128,0.174 -0.192,0.262 z m 7.513,-6.483 -1.561,-3.166 c 0.114,-0.057 0.223,-0.113 0.336,-0.168 l 1.511,3.189 c -0.097,0.046 -0.192,0.096 -0.286,0.145 z m 9.583,-2.338 -0.009,-3.543 c 0.126,0 0.248,0 0.374,0.003 l -0.042,3.542 c -0.107,-0.002 -0.216,-0.002 -0.323,-0.002 z m 9.621,2.258 1.517,-3.186 c 0.113,0.056 0.224,0.113 0.336,0.17 l -1.565,3.161 c -0.096,-0.049 -0.191,-0.097 -0.288,-0.145 z m 7.643,6.362 2.747,-2.16 c 0.075,0.101 0.15,0.202 0.224,0.304 l -2.778,2.117 c -0.065,-0.087 -0.127,-0.174 -0.193,-0.261 z m 4.033,9.174 3.407,-0.654 c 0.022,0.125 0.044,0.251 0.066,0.376 l -3.417,0.6 c -0.018,-0.108 -0.038,-0.216 -0.056,-0.322 z m -0.553,10.012 3.314,1.038 c -0.037,0.121 -0.073,0.243 -0.113,0.364 l -3.296,-1.09 c 0.032,-0.104 0.063,-0.208 0.095,-0.312 z m -5.036,8.606 2.465,2.493 c -0.09,0.09 -0.177,0.181 -0.267,0.269 l -2.423,-2.53 c 0.074,-0.077 0.151,-0.154 0.225,-0.232 z" />
      <path
         id="path28"
         d="m 24.314,158.731 2.445,-0.736 -0.72,-2.498"
         style="fill:none;stroke:#000000;stroke-width:0.76px;stroke-linejoin:miter;stroke-miterlimit:10" />
      <path
         id="path29"
         d="m 51.192,158.175 -2.473,-0.633 0.62,-2.526"
         style="fill:none;stroke:#000000;stroke-width:0.76px;stroke-linejoin:miter;stroke-miterlimit:10" />
      <path
         id="path30"
         d="m 26.759,157.995 c -6.441,-3.692 -10.785,-10.646 -10.785,-18.607 0,-11.825 9.584,-21.425 21.389,-21.425 11.804,0 21.386,9.6 21.386,21.425 0,7.646 -4.007,14.361 -10.03,18.154"
         style="fill:none;stroke:#000000;stroke-width:0.76px" />
    </g>
    <path
       id="path36"
       d="m 37.096841,118.01591 v -7.256"
       style="clip-rule:evenodd;display:inline;fill:none;fill-rule:evenodd;stroke:#000000;stroke-width:1.16px;stroke-linejoin:round;stroke-miterlimit:1.5" />
    <g
       id="path31">
      <path
         id="path22"
         d="m 48.125,102.443 -0.363,1.905 h 0.845 c 0.419,0 0.74,-0.1 0.964,-0.307 0.217,-0.2 0.329,-0.492 0.329,-0.871 0,-0.25 -0.077,-0.436 -0.232,-0.549 -0.154,-0.121 -0.398,-0.178 -0.719,-0.178 z m 0.405,-2.142 -0.301,1.571 h 0.833 c 0.342,0 0.613,-0.086 0.809,-0.258 0.196,-0.164 0.293,-0.4 0.293,-0.692 0,-0.221 -0.062,-0.379 -0.188,-0.472 -0.125,-0.099 -0.327,-0.149 -0.614,-0.149 z m -0.58,-0.578 h 1.51 c 0.46,0 0.809,0.093 1.047,0.278 0.238,0.186 0.356,0.457 0.356,0.813 0,0.358 -0.105,0.658 -0.313,0.9 -0.21,0.236 -0.49,0.378 -0.846,0.429 0.28,0.05 0.502,0.171 0.649,0.356 0.154,0.18 0.231,0.414 0.231,0.706 0,0.544 -0.182,0.964 -0.545,1.271 -0.364,0.3 -0.872,0.451 -1.536,0.451 h -1.544 z"
         style="fill:#231f20;fill-rule:nonzero" />
    </g>
    <g
       id="g32">
      <path
         id="path32"
         d="m 52.268,99.723 h 2.828 l -0.11,0.592 h -1.07 l -0.761,4.019 h 1.069 l -0.113,0.593 h -2.828 l 0.111,-0.593 h 1.069 l 0.761,-4.019 h -1.068 z"
         style="fill:#231f20;fill-rule:nonzero" />
    </g>
    <g
       id="g33">
      <path
         id="path33"
         d="m 57.801,100.308 -1.244,2.698 h 1.468 z m -0.329,-0.585 h 0.839 l 0.566,5.204 h -0.684 l -0.12,-1.357 H 56.3 l -0.63,1.357 h -0.74 z"
         style="fill:#231f20;fill-rule:nonzero" />
    </g>
    <g
       id="g34">
      <path
         id="path34"
         d="m 63.411,99.901 -0.133,0.714 c -0.182,-0.136 -0.378,-0.243 -0.574,-0.307 -0.195,-0.071 -0.404,-0.107 -0.613,-0.107 -0.378,0 -0.678,0.093 -0.916,0.286 -0.237,0.192 -0.356,0.435 -0.356,0.728 0,0.164 0.056,0.299 0.167,0.399 0.112,0.101 0.316,0.2 0.608,0.294 l 0.413,0.135 c 0.369,0.114 0.643,0.271 0.81,0.464 0.175,0.199 0.258,0.442 0.258,0.742 0,0.549 -0.188,0.978 -0.566,1.299 -0.377,0.321 -0.894,0.479 -1.543,0.479 -0.238,0 -0.469,-0.029 -0.699,-0.079 -0.231,-0.05 -0.454,-0.129 -0.684,-0.236 l 0.14,-0.727 c 0.222,0.163 0.446,0.278 0.677,0.356 0.23,0.079 0.468,0.115 0.726,0.115 0.378,0 0.678,-0.1 0.916,-0.308 0.23,-0.207 0.349,-0.464 0.349,-0.778 0,-0.185 -0.049,-0.336 -0.147,-0.443 -0.105,-0.1 -0.307,-0.2 -0.607,-0.299 l -0.343,-0.114 c -0.419,-0.136 -0.713,-0.286 -0.88,-0.457 -0.169,-0.171 -0.252,-0.4 -0.252,-0.678 0,-0.514 0.189,-0.936 0.566,-1.263 0.37,-0.322 0.866,-0.487 1.468,-0.487 0.18,0 0.376,0.023 0.579,0.072 0.21,0.042 0.419,0.114 0.636,0.199 z"
         style="fill:#231f20;fill-rule:nonzero" />
    </g>
    <path
       id="path37"
       d="m 17.783,334.757 h 2.83 l -0.112,0.593 h -1.068 l -0.762,4.019 h 1.069 l -0.111,0.593 h -2.83 l 0.112,-0.593 h 1.068 l 0.762,-4.019 h -1.069 z"
       style="fill:#231f20;fill-rule:nonzero" />
    <path
       id="path38"
       d="m 21.781,334.757 h 0.872 l 0.902,4.284 0.817,-4.284 h 0.664 l -0.992,5.205 h -0.873 l -0.901,-4.284 -0.817,4.284 h -0.664 z"
       style="fill:#231f20;fill-rule:nonzero" />
    <g
       id="path42">
      <path
         id="path35"
         d="m 82.143,102.374 c 0.161,0.028 0.294,0.107 0.392,0.228 0.104,0.128 0.209,0.392 0.334,0.806 l 0.412,1.421 h -0.683 l -0.364,-1.314 c -0.098,-0.364 -0.21,-0.6 -0.336,-0.714 -0.125,-0.114 -0.307,-0.17 -0.559,-0.17 h -0.657 l -0.418,2.198 h -0.691 l 0.985,-5.204 h 1.417 c 0.469,0 0.838,0.107 1.097,0.314 0.259,0.207 0.384,0.499 0.384,0.879 0,0.427 -0.118,0.778 -0.356,1.056 -0.231,0.278 -0.552,0.442 -0.957,0.5 z m -0.999,-2.171 -0.349,1.849 h 0.748 c 0.37,0 0.669,-0.1 0.887,-0.3 0.223,-0.199 0.335,-0.463 0.335,-0.792 0,-0.257 -0.069,-0.449 -0.217,-0.571 -0.14,-0.122 -0.37,-0.186 -0.677,-0.186 z"
         style="fill:#231f20;fill-rule:nonzero" />
    </g>
    <g
       id="path43">
      <path
         id="path39"
         d="M 86.243,100.211 85,102.908 h 1.467 z m -0.328,-0.586 h 0.839 l 0.565,5.204 h -0.684 l -0.119,-1.356 h -1.774 l -0.629,1.356 h -0.741 z"
         style="fill:#231f20;fill-rule:nonzero" />
    </g>
    <g
       id="g44">
      <path
         id="path44"
         d="m 88.913,99.625 h 0.873 l 0.901,4.283 0.817,-4.283 h 0.664 l -0.992,5.204 h -0.872 l -0.902,-4.283 -0.818,4.283 h -0.663 z"
         style="fill:#231f20;fill-rule:nonzero" />
    </g>
    <g
       id="g45">
      <path
         id="path45"
         d="m 95.451,104.493 c -0.196,0.143 -0.411,0.258 -0.649,0.329 -0.231,0.071 -0.482,0.107 -0.747,0.107 -0.531,0 -0.937,-0.158 -1.216,-0.471 -0.287,-0.307 -0.426,-0.758 -0.426,-1.336 0,-0.207 0.021,-0.428 0.056,-0.662 0.042,-0.237 0.09,-0.486 0.167,-0.744 0.077,-0.271 0.175,-0.52 0.28,-0.734 0.105,-0.222 0.223,-0.408 0.35,-0.564 0.244,-0.3 0.508,-0.529 0.809,-0.672 0.293,-0.142 0.629,-0.215 1.007,-0.215 0.18,0 0.363,0.023 0.544,0.073 0.182,0.049 0.357,0.12 0.531,0.213 l -0.14,0.721 c -0.146,-0.149 -0.3,-0.256 -0.461,-0.328 -0.167,-0.071 -0.342,-0.108 -0.524,-0.108 -0.223,0 -0.433,0.051 -0.628,0.144 -0.196,0.1 -0.371,0.243 -0.525,0.428 -0.098,0.121 -0.195,0.271 -0.278,0.45 -0.091,0.185 -0.168,0.385 -0.238,0.614 -0.078,0.264 -0.14,0.514 -0.175,0.742 -0.042,0.235 -0.063,0.442 -0.063,0.635 0,0.393 0.091,0.7 0.273,0.92 0.174,0.215 0.433,0.322 0.762,0.322 0.153,0 0.293,-0.022 0.419,-0.064 0.118,-0.043 0.223,-0.107 0.307,-0.185 l 0.259,-1.371 h -0.741 l 0.105,-0.577 h 1.396 z"
         style="fill:#231f20;fill-rule:nonzero" />
    </g>
    <g
       id="g46">
      <path
         id="path46"
         d="m 97.526,99.625 h 3.018 l -0.111,0.593 H 98.1 l -0.294,1.542 h 2.228 l -0.112,0.592 h -2.228 l -0.357,1.884 h 2.397 l -0.112,0.593 h -3.088 z"
         style="fill:#231f20;fill-rule:nonzero" />
    </g>
    <g
       id="path48">
      <path
         id="path47"
         d="m 119.359,101.644 c 0,-0.279 -0.048,-0.486 -0.139,-0.628 -0.091,-0.136 -0.223,-0.207 -0.411,-0.207 -0.133,0 -0.259,0.042 -0.371,0.12 -0.112,0.087 -0.21,0.207 -0.294,0.365 -0.048,0.093 -0.098,0.215 -0.146,0.364 -0.049,0.149 -0.098,0.329 -0.154,0.542 -0.063,0.272 -0.118,0.513 -0.146,0.749 -0.035,0.229 -0.056,0.435 -0.056,0.607 0,0.279 0.049,0.486 0.139,0.621 0.091,0.143 0.224,0.207 0.413,0.207 0.132,0 0.259,-0.042 0.369,-0.122 0.113,-0.085 0.211,-0.206 0.295,-0.363 0.055,-0.1 0.103,-0.229 0.153,-0.386 0.055,-0.149 0.104,-0.321 0.146,-0.514 0.063,-0.271 0.12,-0.513 0.154,-0.748 0.029,-0.229 0.048,-0.436 0.048,-0.607 z m -2.751,1.934 c 0,-0.465 0.055,-0.935 0.168,-1.413 0.111,-0.478 0.265,-0.892 0.46,-1.25 0.175,-0.328 0.405,-0.578 0.692,-0.749 0.279,-0.179 0.6,-0.264 0.957,-0.264 0.489,0 0.86,0.142 1.117,0.436 0.259,0.292 0.392,0.72 0.392,1.271 0,0.471 -0.056,0.942 -0.167,1.426 -0.113,0.478 -0.266,0.893 -0.455,1.243 -0.173,0.328 -0.413,0.578 -0.691,0.756 -0.287,0.179 -0.609,0.264 -0.963,0.264 -0.497,0 -0.868,-0.142 -1.127,-0.442 -0.257,-0.293 -0.383,-0.721 -0.383,-1.278 z"
         style="fill:#ffffff;fill-rule:nonzero" />
    </g>
    <g
       id="g49">
      <path
         id="path49"
         d="m 120.835,103.278 0.629,-3.283 h 1.005 l -0.677,3.54 c 0,0.006 0,0.014 -0.006,0.02 -0.013,0.108 -0.022,0.186 -0.022,0.235 0,0.193 0.057,0.344 0.154,0.444 0.104,0.107 0.258,0.156 0.448,0.156 0.244,0 0.44,-0.071 0.586,-0.213 0.147,-0.136 0.252,-0.358 0.307,-0.643 l 0.678,-3.54 h 1.005 l -0.628,3.283 c -0.084,0.421 -0.168,0.735 -0.259,0.949 -0.091,0.215 -0.208,0.393 -0.349,0.544 -0.174,0.171 -0.377,0.299 -0.614,0.392 -0.238,0.093 -0.496,0.135 -0.782,0.135 -0.496,0 -0.882,-0.114 -1.146,-0.342 -0.273,-0.229 -0.406,-0.557 -0.406,-0.985 0,-0.1 0.006,-0.207 0.02,-0.322 0.008,-0.114 0.028,-0.236 0.057,-0.371 z"
         style="fill:#ffffff;fill-rule:nonzero" />
    </g>
    <g
       id="g50">
      <path
         id="path50"
         d="m 126.919,105.198 h -1.006 l 0.817,-4.304 h -1.305 l 0.167,-0.899 h 3.611 l -0.174,0.899 h -1.292 z"
         style="fill:#ffffff;fill-rule:nonzero" />
    </g>
    <g
       id="path52">
      <path
         id="path51"
         d="m 111.097,51.951 v 1.499 h 1.466 v 0.829 h -1.466 v 1.506 h -0.811 v -1.506 h -1.474 V 53.45 h 1.474 v -1.499 z"
         style="fill:#ffffff;fill-rule:nonzero" />
    </g>
    <g
       id="path54">
      <path
         id="path53"
         d="m 109.332,80.918 h 3.619 l -0.146,0.943 h -3.619 z"
         style="fill:#ffffff;fill-rule:nonzero" />
    </g>
    <g
       id="path60"
       transform="translate(-0.14372932,-2.730857)">
      <path
         id="path55"
         d="m 114.092,215.841 2.514,-5.14 2.515,5.14 z"
         style="fill:#231f20" />
    </g>
    <path
       id="path61"
       d="m 116.606,314.88592 v -102.155"
       style="fill:none;stroke:#231f20;stroke-width:0.85px;stroke-linecap:round" />
    <g
       id="path62">
      <path
         id="path56"
         d="m 70.879,214.363 2.515,-5.14 2.514,5.14 z"
         style="fill:#231f20" />
    </g>
    <g
       id="path63">
      <path
         id="path57"
         d="m 73.394,220.531 v -7.196"
         style="fill:none;stroke:#231f20;stroke-width:0.85px;stroke-linecap:round" />
    </g>
    <g
       id="path64">
      <path
         id="path58"
         d="m 31.642,185.059 -0.159,0.856 c -0.218,-0.162 -0.452,-0.291 -0.688,-0.368 -0.234,-0.085 -0.486,-0.129 -0.737,-0.129 -0.453,0 -0.813,0.112 -1.098,0.344 -0.285,0.231 -0.428,0.521 -0.428,0.872 0,0.197 0.068,0.36 0.201,0.48 0.134,0.12 0.378,0.24 0.729,0.352 l 0.495,0.162 c 0.445,0.138 0.772,0.326 0.973,0.557 0.209,0.24 0.309,0.531 0.309,0.891 0,0.66 -0.226,1.174 -0.678,1.56 -0.453,0.386 -1.073,0.574 -1.853,0.574 -0.285,0 -0.561,-0.035 -0.838,-0.094 -0.277,-0.061 -0.545,-0.155 -0.822,-0.284 l 0.168,-0.874 c 0.268,0.197 0.537,0.335 0.812,0.429 0.278,0.094 0.563,0.137 0.873,0.137 0.453,0 0.813,-0.12 1.098,-0.369 0.277,-0.248 0.419,-0.556 0.419,-0.933 0,-0.223 -0.059,-0.403 -0.176,-0.532 -0.126,-0.12 -0.369,-0.239 -0.73,-0.359 l -0.41,-0.138 c -0.502,-0.162 -0.855,-0.342 -1.056,-0.547 -0.201,-0.206 -0.302,-0.48 -0.302,-0.815 0,-0.617 0.227,-1.121 0.679,-1.516 0.444,-0.385 1.039,-0.582 1.761,-0.582 0.218,0 0.453,0.026 0.696,0.085 0.252,0.052 0.503,0.138 0.762,0.241 z"
         style="fill:#231f20;fill-rule:nonzero" />
    </g>
    <g
       id="path65">
      <path
         id="path59"
         d="m 32.781,184.844 h 4.671 l -0.135,0.712 h -1.919 l -1.049,5.534 h -0.838 l 1.057,-5.534 h -1.92 z"
         style="fill:#231f20;fill-rule:nonzero" />
    </g>
    <g
       id="g66">
      <path
         id="path66"
         d="m 38.449,184.844 h 3.622 l -0.134,0.712 h -2.8 l -0.352,1.849 h 2.675 l -0.136,0.712 H 38.65 l -0.427,2.261 h 2.876 l -0.134,0.712 H 37.26 Z"
         style="fill:#231f20;fill-rule:nonzero" />
    </g>
    <g
       id="g67">
      <path
         id="path67"
         d="m 44.183,185.538 -0.443,2.347 h 0.955 c 0.454,0 0.814,-0.137 1.082,-0.403 0.269,-0.265 0.402,-0.616 0.402,-1.062 0,-0.3 -0.083,-0.522 -0.251,-0.667 -0.176,-0.145 -0.436,-0.215 -0.788,-0.215 z m -0.695,-0.694 h 1.803 c 0.562,0 0.989,0.129 1.282,0.386 0.294,0.258 0.445,0.626 0.445,1.113 0,0.694 -0.219,1.242 -0.654,1.636 -0.436,0.403 -1.041,0.6 -1.802,0.6 h -0.957 l -0.477,2.511 h -0.83 z"
         style="fill:#231f20;fill-rule:nonzero" />
    </g>
    <g
       id="path69">
      <path
         id="path68"
         d="m 28.275,168.492 -0.435,2.287 h 1.014 c 0.503,0 0.889,-0.12 1.156,-0.369 0.261,-0.239 0.394,-0.591 0.394,-1.045 0,-0.3 -0.091,-0.523 -0.276,-0.659 -0.184,-0.146 -0.477,-0.214 -0.864,-0.214 z m 0.488,-2.57 -0.361,1.884 H 29.4 c 0.41,0 0.737,-0.103 0.971,-0.308 0.235,-0.197 0.353,-0.48 0.353,-0.831 0,-0.265 -0.076,-0.454 -0.227,-0.565 -0.15,-0.12 -0.394,-0.18 -0.738,-0.18 z m -0.697,-0.694 h 1.811 c 0.553,0 0.972,0.112 1.258,0.335 0.284,0.222 0.426,0.548 0.426,0.976 0,0.427 -0.125,0.787 -0.376,1.079 -0.252,0.282 -0.588,0.453 -1.015,0.513 0.335,0.061 0.604,0.207 0.78,0.429 0.185,0.214 0.276,0.497 0.276,0.849 0,0.65 -0.218,1.156 -0.654,1.524 -0.435,0.36 -1.048,0.54 -1.844,0.54 h -1.852 z"
         style="fill:#231f20;fill-rule:nonzero" />
    </g>
    <g
       id="g70">
      <path
         id="path70"
         d="m 33.247,165.228 h 3.394 l -0.133,0.711 h -1.283 l -0.914,4.823 h 1.282 l -0.133,0.711 h -3.395 l 0.134,-0.711 h 1.282 l 0.915,-4.823 h -1.284 z"
         style="fill:#231f20;fill-rule:nonzero" />
    </g>
    <g
       id="g71">
      <path
         id="path71"
         d="m 39.886,165.931 -1.491,3.237 h 1.76 z m -0.394,-0.703 h 1.006 l 0.679,6.245 h -0.821 l -0.142,-1.628 h -2.13 l -0.755,1.628 h -0.888 z"
         style="fill:#231f20;fill-rule:nonzero" />
    </g>
    <g
       id="g72">
      <path
         id="path72"
         d="m 46.619,165.442 -0.16,0.857 c -0.218,-0.163 -0.453,-0.291 -0.687,-0.368 -0.235,-0.086 -0.486,-0.129 -0.738,-0.129 -0.452,0 -0.813,0.111 -1.099,0.343 -0.284,0.231 -0.426,0.522 -0.426,0.873 0,0.197 0.067,0.359 0.201,0.48 0.134,0.12 0.377,0.239 0.728,0.35 l 0.495,0.164 c 0.445,0.136 0.772,0.325 0.973,0.556 0.209,0.241 0.31,0.532 0.31,0.892 0,0.659 -0.226,1.173 -0.679,1.559 -0.453,0.385 -1.073,0.574 -1.853,0.574 -0.285,0 -0.561,-0.034 -0.838,-0.095 -0.277,-0.059 -0.545,-0.153 -0.821,-0.282 l 0.168,-0.874 c 0.267,0.197 0.536,0.334 0.813,0.429 0.276,0.094 0.561,0.136 0.872,0.136 0.452,0 0.812,-0.119 1.097,-0.368 0.277,-0.248 0.42,-0.557 0.42,-0.933 0,-0.223 -0.059,-0.403 -0.177,-0.532 -0.125,-0.12 -0.368,-0.239 -0.729,-0.359 l -0.41,-0.138 c -0.503,-0.162 -0.855,-0.343 -1.056,-0.549 -0.202,-0.205 -0.303,-0.479 -0.303,-0.813 0,-0.616 0.226,-1.122 0.679,-1.516 0.445,-0.385 1.039,-0.582 1.761,-0.582 0.218,0 0.452,0.026 0.696,0.085 0.251,0.052 0.502,0.138 0.763,0.24 z"
         style="fill:#231f20;fill-rule:nonzero" />
    </g>
    <g
       id="path74">
      <path
         id="path73"
         d="m 96.68,168.525 c 0.193,0.035 0.352,0.129 0.469,0.275 0.126,0.154 0.252,0.471 0.403,0.968 l 0.494,1.705 h -0.821 l -0.436,-1.576 c -0.117,-0.437 -0.252,-0.72 -0.402,-0.858 -0.151,-0.136 -0.369,-0.205 -0.671,-0.205 h -0.788 l -0.503,2.639 h -0.83 l 1.182,-6.245 h 1.702 c 0.562,0 1.005,0.128 1.316,0.377 0.311,0.249 0.462,0.6 0.462,1.053 0,0.514 -0.143,0.934 -0.429,1.267 -0.276,0.335 -0.662,0.532 -1.148,0.6 z m -1.198,-2.603 -0.42,2.218 h 0.897 c 0.444,0 0.805,-0.119 1.065,-0.36 0.268,-0.239 0.402,-0.556 0.402,-0.949 0,-0.309 -0.084,-0.541 -0.26,-0.686 -0.168,-0.146 -0.444,-0.223 -0.813,-0.223 z"
         style="fill:#231f20;fill-rule:nonzero" />
    </g>
    <g
       id="g75">
      <path
         id="path75"
         d="m 101.601,165.931 -1.493,3.237 h 1.761 z m -0.394,-0.703 h 1.006 l 0.678,6.245 h -0.822 l -0.142,-1.628 h -2.129 l -0.754,1.628 h -0.889 z"
         style="fill:#231f20;fill-rule:nonzero" />
    </g>
    <g
       id="g76">
      <path
         id="path76"
         d="m 104.803,165.228 h 1.048 l 1.082,5.14 0.98,-5.14 h 0.797 l -1.19,6.245 h -1.048 l -1.082,-5.139 -0.98,5.139 h -0.798 z"
         style="fill:#231f20;fill-rule:nonzero" />
    </g>
    <g
       id="g77">
      <path
         id="path77"
         d="m 112.65,171.071 c -0.234,0.171 -0.495,0.308 -0.779,0.394 -0.276,0.085 -0.578,0.128 -0.897,0.128 -0.638,0 -1.124,-0.189 -1.459,-0.566 -0.343,-0.368 -0.511,-0.908 -0.511,-1.602 0,-0.248 0.025,-0.513 0.067,-0.797 0.05,-0.283 0.109,-0.583 0.202,-0.891 0.091,-0.325 0.209,-0.625 0.334,-0.883 0.126,-0.264 0.268,-0.487 0.419,-0.675 0.294,-0.36 0.613,-0.634 0.973,-0.806 0.353,-0.171 0.754,-0.256 1.207,-0.256 0.218,0 0.435,0.026 0.654,0.085 0.218,0.061 0.428,0.146 0.637,0.258 l -0.168,0.865 c -0.176,-0.18 -0.36,-0.309 -0.552,-0.394 -0.202,-0.086 -0.411,-0.129 -0.63,-0.129 -0.267,0 -0.519,0.06 -0.753,0.171 -0.236,0.12 -0.445,0.291 -0.63,0.514 -0.116,0.146 -0.235,0.326 -0.335,0.54 -0.109,0.222 -0.201,0.462 -0.285,0.736 -0.092,0.317 -0.168,0.617 -0.21,0.891 -0.05,0.283 -0.075,0.532 -0.075,0.762 0,0.472 0.11,0.84 0.327,1.106 0.21,0.257 0.52,0.385 0.914,0.385 0.184,0 0.351,-0.025 0.502,-0.077 0.143,-0.051 0.269,-0.128 0.37,-0.223 l 0.31,-1.644 h -0.888 l 0.125,-0.694 h 1.677 z"
         style="fill:#231f20;fill-rule:nonzero" />
    </g>
    <g
       id="g78">
      <path
         id="path78"
         d="m 115.14,165.228 h 3.621 l -0.134,0.711 h -2.8 l -0.352,1.85 h 2.674 l -0.133,0.711 h -2.675 l -0.427,2.262 h 2.875 l -0.134,0.711 h -3.706 z"
         style="fill:#231f20;fill-rule:nonzero" />
    </g>
    <g
       id="path80">
      <path
         id="path79"
         d="m 17.552,99.629 h 2.829 l -0.111,0.592 H 19.2 l -0.761,4.019 h 1.068 l -0.111,0.593 h -2.829 l 0.111,-0.593 h 1.07 l 0.761,-4.019 h -1.068 z"
         style="fill:#231f20;fill-rule:nonzero" />
    </g>
    <g
       id="g81">
      <path
         id="path81"
         d="m 21.549,99.629 h 0.873 l 0.901,4.282 0.817,-4.282 h 0.664 l -0.992,5.204 H 22.94 l -0.902,-4.284 -0.818,4.284 h -0.663 z"
         style="fill:#231f20;fill-rule:nonzero" />
    </g>
    <path
       id="path83"
       d="m 9.212,286.901 h 2.829 l -0.111,0.593 h -1.068 l -0.763,4.018 h 1.07 l -0.112,0.593 h -2.83 l 0.113,-0.593 h 1.068 l 0.761,-4.018 H 9.101 Z"
       style="fill:#231f20;fill-rule:nonzero" />
    <path
       id="path84"
       d="m 13.209,286.901 h 0.873 l 0.902,4.283 0.817,-4.283 h 0.664 l -0.992,5.204 h -0.875 l -0.9,-4.282 -0.818,4.282 h -0.663 z"
       style="fill:#231f20;fill-rule:nonzero" />
    <path
       id="path85"
       d="m 18.183,291.441 2.04,-4.54 h 0.733 l -2.452,5.204 h -0.881 l -0.502,-5.204 h 0.677 z"
       style="fill:#231f20;fill-rule:nonzero" />
    <path
       id="path86"
       d="m 21.823,286.901 h 3.017 l -0.111,0.593 h -2.333 l -0.294,1.541 h 2.229 l -0.112,0.592 h -2.228 l -0.357,1.885 h 2.396 l -0.111,0.593 H 20.83 Z"
       style="fill:#231f20;fill-rule:nonzero" />
    <path
       id="path87"
       d="m 27.467,289.649 c 0.161,0.031 0.294,0.107 0.392,0.229 0.104,0.129 0.209,0.392 0.334,0.807 l 0.413,1.42 h -0.684 l -0.364,-1.313 c -0.098,-0.365 -0.21,-0.6 -0.335,-0.714 -0.126,-0.114 -0.308,-0.171 -0.559,-0.171 h -0.657 l -0.419,2.198 h -0.691 l 0.985,-5.204 h 1.417 c 0.469,0 0.838,0.107 1.097,0.315 0.259,0.207 0.384,0.499 0.384,0.878 0,0.428 -0.118,0.777 -0.356,1.055 -0.231,0.279 -0.552,0.443 -0.957,0.5 z m -0.998,-2.17 -0.35,1.848 h 0.748 c 0.37,0 0.669,-0.1 0.887,-0.3 0.223,-0.199 0.335,-0.463 0.335,-0.791 0,-0.258 -0.069,-0.449 -0.217,-0.571 -0.14,-0.123 -0.37,-0.186 -0.677,-0.186 z"
       style="fill:#231f20;fill-rule:nonzero" />
    <path
       id="path88"
       d="m 29.717,286.901 h 3.891 l -0.111,0.593 h -1.6 l -0.873,4.611 h -0.699 l 0.881,-4.611 h -1.6 z"
       style="fill:#231f20;fill-rule:nonzero" />
    <path
       id="path89"
       d="m 16.149,294.219 -0.132,0.714 c -0.182,-0.136 -0.377,-0.243 -0.573,-0.307 -0.196,-0.072 -0.406,-0.107 -0.615,-0.107 -0.377,0 -0.678,0.092 -0.915,0.285 -0.237,0.193 -0.357,0.435 -0.357,0.728 0,0.165 0.056,0.3 0.169,0.4 0.112,0.1 0.314,0.199 0.608,0.292 l 0.412,0.136 c 0.37,0.115 0.642,0.272 0.81,0.464 0.174,0.2 0.258,0.443 0.258,0.743 0,0.55 -0.188,0.977 -0.566,1.299 -0.377,0.321 -0.894,0.478 -1.544,0.478 -0.237,0 -0.467,-0.03 -0.697,-0.078 -0.231,-0.051 -0.455,-0.129 -0.686,-0.235 l 0.14,-0.729 c 0.224,0.165 0.448,0.28 0.678,0.358 0.23,0.077 0.467,0.114 0.726,0.114 0.378,0 0.678,-0.1 0.916,-0.307 0.23,-0.207 0.349,-0.465 0.349,-0.778 0,-0.187 -0.049,-0.336 -0.146,-0.443 -0.105,-0.1 -0.309,-0.2 -0.609,-0.3 l -0.342,-0.114 c -0.42,-0.136 -0.713,-0.286 -0.88,-0.457 -0.168,-0.171 -0.252,-0.4 -0.252,-0.678 0,-0.515 0.189,-0.936 0.566,-1.264 0.371,-0.321 0.867,-0.486 1.467,-0.486 0.182,0 0.378,0.02 0.58,0.072 0.21,0.042 0.419,0.114 0.635,0.2 z"
       style="fill:#231f20;fill-rule:nonzero" />
    <path
       id="path90"
       d="m 17.1,294.04 h 3.89 l -0.111,0.593 h -1.6 l -0.873,4.611 h -0.699 l 0.881,-4.611 h -1.6 z"
       style="fill:#231f20;fill-rule:nonzero" />
    <path
       id="path91"
       d="m 21.823,294.04 h 3.017 l -0.111,0.593 h -2.333 l -0.294,1.541 h 2.229 l -0.112,0.593 h -2.228 l -0.357,1.885 h 2.396 l -0.111,0.592 H 20.83 Z"
       style="fill:#231f20;fill-rule:nonzero" />
    <path
       id="path92"
       d="m 26.601,294.619 -0.371,1.955 h 0.798 c 0.376,0 0.676,-0.114 0.9,-0.336 0.224,-0.221 0.336,-0.514 0.336,-0.884 0,-0.25 -0.071,-0.435 -0.21,-0.557 -0.147,-0.123 -0.363,-0.178 -0.657,-0.178 z m -0.58,-0.579 h 1.503 c 0.467,0 0.824,0.108 1.068,0.321 0.245,0.213 0.37,0.521 0.37,0.928 0,0.578 -0.182,1.034 -0.544,1.363 -0.364,0.336 -0.867,0.5 -1.503,0.5 h -0.796 l -0.398,2.092 h -0.692 z"
       style="fill:#231f20;fill-rule:nonzero" />
    <g
       id="path94">
      <path
         id="path82"
         d="m 69.948,222.257 h 2.829 l -0.111,0.593 h -1.07 l -0.761,4.019 h 1.069 l -0.112,0.592 h -2.829 l 0.112,-0.592 h 1.069 l 0.76,-4.019 h -1.068 z"
         style="fill:#231f20;fill-rule:nonzero" />
    </g>
    <g
       id="path95">
      <path
         id="path93"
         d="m 73.944,222.257 h 0.874 l 0.901,4.283 0.817,-4.283 H 77.2 l -0.992,5.204 h -0.873 l -0.902,-4.284 -0.817,4.284 h -0.664 z"
         style="fill:#231f20;fill-rule:nonzero" />
    </g>
    <path
       id="path97"
       d="m 45.828,334.757 h 3.891 l -0.112,0.593 h -1.599 l -0.874,4.612 h -0.698 l 0.88,-4.612 h -1.6 z"
       style="fill:#231f20;fill-rule:nonzero" />
    <path
       id="path98"
       d="m 51.989,337.506 c 0.161,0.025 0.294,0.107 0.391,0.228 0.105,0.128 0.21,0.393 0.336,0.807 l 0.411,1.42 h -0.683 l -0.363,-1.312 c -0.099,-0.365 -0.21,-0.6 -0.337,-0.715 -0.124,-0.114 -0.306,-0.171 -0.558,-0.171 h -0.657 l -0.419,2.199 h -0.691 l 0.985,-5.205 h 1.418 c 0.468,0 0.838,0.107 1.097,0.314 0.258,0.208 0.384,0.5 0.384,0.878 0,0.429 -0.119,0.778 -0.356,1.057 -0.231,0.278 -0.553,0.443 -0.958,0.5 z m -0.999,-2.171 -0.348,1.849 h 0.747 c 0.37,0 0.67,-0.1 0.887,-0.3 0.223,-0.2 0.336,-0.464 0.336,-0.792 0,-0.257 -0.071,-0.45 -0.218,-0.571 -0.139,-0.122 -0.369,-0.186 -0.677,-0.186 z"
       style="fill:#231f20;fill-rule:nonzero" />
    <path
       id="path99"
       d="m 54.763,334.757 h 2.83 l -0.112,0.593 h -1.069 l -0.761,4.019 h 1.068 l -0.111,0.593 h -2.83 l 0.112,-0.593 h 1.069 l 0.762,-4.019 h -1.069 z"
       style="fill:#231f20;fill-rule:nonzero" />
    <path
       id="path100"
       d="m 61.092,339.627 c -0.195,0.142 -0.412,0.255 -0.649,0.327 -0.23,0.072 -0.482,0.108 -0.748,0.108 -0.53,0 -0.936,-0.157 -1.215,-0.471 -0.286,-0.307 -0.426,-0.757 -0.426,-1.335 0,-0.207 0.021,-0.429 0.056,-0.665 0.042,-0.235 0.09,-0.485 0.167,-0.742 0.077,-0.271 0.175,-0.521 0.279,-0.736 0.105,-0.22 0.224,-0.407 0.35,-0.564 0.244,-0.299 0.51,-0.528 0.811,-0.67 0.292,-0.144 0.628,-0.215 1.006,-0.215 0.181,0 0.362,0.023 0.545,0.071 0.181,0.051 0.355,0.122 0.531,0.215 l -0.14,0.721 c -0.147,-0.15 -0.301,-0.258 -0.461,-0.328 -0.169,-0.072 -0.343,-0.107 -0.524,-0.107 -0.224,0 -0.434,0.051 -0.63,0.143 -0.195,0.1 -0.37,0.242 -0.523,0.427 -0.098,0.123 -0.195,0.273 -0.279,0.45 -0.092,0.186 -0.168,0.386 -0.238,0.615 -0.076,0.264 -0.14,0.513 -0.174,0.742 -0.043,0.236 -0.063,0.443 -0.063,0.636 0,0.392 0.089,0.7 0.272,0.92 0.174,0.214 0.433,0.322 0.761,0.322 0.154,0 0.293,-0.023 0.42,-0.064 0.117,-0.044 0.223,-0.107 0.307,-0.186 l 0.258,-1.372 h -0.741 l 0.106,-0.577 h 1.397 z"
       style="fill:#231f20;fill-rule:nonzero" />
    <path
       id="path101"
       d="m 63.453,338.556 h 1.203 l -0.274,1.406 h -1.2 z"
       style="fill:#231f20;fill-rule:nonzero" />
    <path
       id="path103"
       d="m 81.966,337.506 c 0.161,0.025 0.294,0.107 0.392,0.228 0.103,0.128 0.208,0.393 0.335,0.807 l 0.411,1.42 h -0.685 l -0.363,-1.312 c -0.097,-0.365 -0.209,-0.6 -0.336,-0.715 -0.125,-0.114 -0.306,-0.171 -0.558,-0.171 h -0.657 l -0.418,2.199 h -0.692 l 0.985,-5.205 h 1.419 c 0.467,0 0.837,0.107 1.096,0.314 0.258,0.208 0.384,0.5 0.384,0.878 0,0.429 -0.119,0.778 -0.356,1.057 -0.23,0.278 -0.552,0.443 -0.957,0.5 z m -0.999,-2.171 -0.349,1.849 h 0.747 c 0.37,0 0.671,-0.1 0.887,-0.3 0.223,-0.2 0.336,-0.464 0.336,-0.792 0,-0.257 -0.071,-0.45 -0.217,-0.571 -0.14,-0.122 -0.37,-0.186 -0.678,-0.186 z"
       style="fill:#231f20;fill-rule:nonzero" />
    <path
       id="path104"
       d="m 84.732,334.757 h 3.017 l -0.111,0.593 h -2.333 l -0.294,1.541 h 2.229 l -0.111,0.593 H 84.9 l -0.357,1.885 h 2.397 l -0.113,0.593 H 83.74 Z"
       style="fill:#231f20;fill-rule:nonzero" />
    <path
       id="path105"
       d="m 91.677,334.935 -0.132,0.714 c -0.183,-0.136 -0.379,-0.243 -0.574,-0.307 -0.196,-0.071 -0.405,-0.107 -0.614,-0.107 -0.378,0 -0.679,0.093 -0.916,0.287 -0.237,0.191 -0.356,0.435 -0.356,0.727 0,0.165 0.056,0.3 0.168,0.4 0.111,0.1 0.315,0.2 0.608,0.293 l 0.411,0.136 c 0.371,0.115 0.643,0.271 0.811,0.464 0.174,0.2 0.259,0.442 0.259,0.742 0,0.55 -0.19,0.979 -0.567,1.299 -0.376,0.322 -0.894,0.479 -1.544,0.479 -0.237,0 -0.467,-0.026 -0.699,-0.079 -0.23,-0.049 -0.453,-0.128 -0.684,-0.235 l 0.14,-0.728 c 0.223,0.165 0.447,0.278 0.678,0.357 0.23,0.079 0.467,0.114 0.726,0.114 0.377,0 0.678,-0.1 0.916,-0.307 0.23,-0.207 0.348,-0.464 0.348,-0.778 0,-0.185 -0.049,-0.335 -0.147,-0.442 -0.103,-0.1 -0.306,-0.2 -0.606,-0.3 l -0.343,-0.115 c -0.419,-0.136 -0.712,-0.286 -0.88,-0.457 -0.167,-0.172 -0.251,-0.4 -0.251,-0.679 0,-0.512 0.188,-0.934 0.565,-1.262 0.37,-0.322 0.867,-0.486 1.467,-0.486 0.182,0 0.377,0.022 0.58,0.071 0.209,0.044 0.419,0.115 0.636,0.2 z"
       style="fill:#231f20;fill-rule:nonzero" />
    <path
       id="path106"
       d="m 93.143,334.757 h 3.018 l -0.111,0.593 h -2.333 l -0.294,1.541 h 2.229 l -0.112,0.593 h -2.229 l -0.356,1.885 h 2.395 l -0.11,0.593 h -3.089 z"
       style="fill:#231f20;fill-rule:nonzero" />
    <path
       id="path107"
       d="m 96.831,334.757 h 3.893 l -0.113,0.593 h -1.599 l -0.874,4.612 H 97.44 l 0.88,-4.612 h -1.599 z"
       style="fill:#231f20;fill-rule:nonzero" />
    <g
       id="path109">
      <path
         id="path96"
         d="M 16.411,178.218 H 128.943"
         style="fill:none;stroke:#231f20;stroke-width:0.85px;stroke-linecap:round" />
    </g>
    <g
       id="path110">
      <path
         id="path102"
         d="m 104.602,197.886 -2.509,5.143 -2.52,-5.137 z" />
    </g>
    <g
       id="circle112">
      <ellipse
         id="ellipse108"
         cx="87.883003"
         cy="205.716"
         rx="1.775"
         ry="1.8150001"
         style="stroke:#000000;stroke-width:0.85px" />
    </g>
    <g
       id="circle113">
      <ellipse
         id="ellipse109"
         cx="73.646004"
         cy="205.716"
         rx="1.775"
         ry="1.8150001"
         style="stroke:#000000;stroke-width:0.85px" />
    </g>
    <g
       id="circle114">
      <ellipse
         id="ellipse110"
         cx="102.121"
         cy="205.716"
         rx="1.775"
         ry="1.8150001"
         style="stroke:#000000;stroke-width:0.85px" />
    </g>
    <g
       id="circle115">
      <ellipse
         id="ellipse111"
         cx="116.359"
         cy="205.716"
         rx="1.775"
         ry="1.8150001"
         style="stroke:#000000;stroke-width:0.85px" />
    </g>
    <g
       id="path116">
      <path
         id="path112"
         d="m 90.091,197.905 -2.447,5.173 -2.582,-5.105 z" />
    </g>
    <g
       id="path117">
      <path
         id="path113"
         d="m 56.108,187.424 c 0.314,0.332 14.441,0 21.13,0 8.59,0 10.092,3.796 10.352,10.543"
         style="fill:none;stroke:#000000;stroke-width:0.85px" />
    </g>
    <g
       id="path118"
       transform="translate(0,-7.545789)">
      <path
         id="path114"
         d="m 132.143,220.294 -2.55,5.121 -2.48,-5.157 z" />
    </g>
    <g
       id="path119"
       transform="matrix(1.0011291,0,0,0.72535772,-0.11507071,56.36915)">
      <path
         id="path115"
         d="m 73.709,205.572 h 47.514 c 8.271,0 8.602,6.977 8.453,12.164 -0.021,0.786 -0.04,1.999 -0.055,3.566"
         style="fill:none;stroke:#000000;stroke-width:0.85px" />
    </g>
    <g
       id="g120">
      <path
         id="path120"
         d="m 132.232,301.332 -2.491,5.152 -2.538,-5.127 z" />
    </g>
    <path
       id="path121"
       d="m 129.593,220.21 c -0.087,18.231 0.072,68.52 0.13,81.122"
       style="fill:none;stroke:#000000;stroke-width:0.85px" />
    <g
       id="g122">
      <path
         id="path122"
         d="m 6.617,92.566 5.435,-1.47 -2.11,5.326 z" />
    </g>
    <path
       id="path123"
       d="m 135.64665,315.70116 v 17.71481 c 0,0 1.90699,11.22981 -14.64892,11.22981 H 20.247274 c 0,0 -14.2229232,1.86645 -14.2229232,-12.42702 v -232.121 c 0,0 0.9599948,-3.507502 3.0099837,-6.283644"
       style="fill:none;stroke:#000000;stroke-width:0.850786px" />
    <g
       id="g124"
       style="fill:#666666;stroke:#000000;stroke-opacity:1">
      <path
         id="path124"
         d="m 138.122,313.582 c 0,-3.777 -3.006,-6.844 -6.709,-6.844 h -11.072 c -3.702,0 -6.709,3.067 -6.709,6.844 v 24.306 c 0,3.777 3.007,6.844 6.709,6.844 h 11.072 c 3.703,0 6.709,-3.067 6.709,-6.844 z"
         style="fill:#666666;stroke:#000000;stroke-opacity:1" />
    </g>
    <g
       id="g125">
      <path
         id="path125"
         d="m 122.462,337.01 c 0,-0.278 -0.048,-0.485 -0.14,-0.628 -0.091,-0.136 -0.223,-0.207 -0.411,-0.207 -0.134,0 -0.259,0.042 -0.372,0.121 -0.111,0.086 -0.209,0.207 -0.293,0.365 -0.048,0.092 -0.097,0.214 -0.146,0.363 -0.048,0.151 -0.098,0.329 -0.154,0.544 -0.062,0.271 -0.118,0.513 -0.146,0.749 -0.035,0.229 -0.056,0.436 -0.056,0.607 0,0.278 0.049,0.485 0.14,0.621 0.091,0.143 0.223,0.207 0.412,0.207 0.132,0 0.259,-0.043 0.37,-0.121 0.112,-0.086 0.21,-0.207 0.294,-0.365 0.056,-0.1 0.104,-0.228 0.154,-0.385 0.055,-0.15 0.104,-0.321 0.146,-0.514 0.062,-0.272 0.118,-0.514 0.154,-0.75 0.028,-0.229 0.048,-0.435 0.048,-0.607 z m -2.752,1.936 c 0,-0.465 0.055,-0.936 0.168,-1.414 0.111,-0.479 0.265,-0.893 0.461,-1.25 0.174,-0.328 0.404,-0.579 0.692,-0.75 0.278,-0.178 0.599,-0.264 0.956,-0.264 0.489,0 0.859,0.143 1.118,0.436 0.258,0.293 0.392,0.721 0.392,1.271 0,0.471 -0.057,0.942 -0.168,1.427 -0.113,0.479 -0.266,0.893 -0.455,1.243 -0.174,0.328 -0.412,0.578 -0.691,0.756 -0.287,0.178 -0.608,0.264 -0.964,0.264 -0.496,0 -0.867,-0.143 -1.125,-0.442 -0.258,-0.292 -0.384,-0.721 -0.384,-1.277 z"
         style="fill:#ffffff;fill-rule:nonzero" />
    </g>
    <g
       id="g126">
      <path
         id="path126"
         d="m 123.937,338.646 0.629,-3.285 h 1.006 l -0.678,3.541 c 0,0.006 0,0.014 -0.006,0.023 -0.013,0.107 -0.022,0.185 -0.022,0.235 0,0.193 0.056,0.343 0.154,0.443 0.105,0.107 0.259,0.157 0.448,0.157 0.244,0 0.439,-0.071 0.587,-0.215 0.146,-0.135 0.251,-0.356 0.307,-0.642 l 0.677,-3.541 h 1.006 l -0.629,3.284 c -0.084,0.421 -0.167,0.735 -0.259,0.95 -0.091,0.213 -0.208,0.393 -0.349,0.541 -0.174,0.171 -0.377,0.3 -0.614,0.393 -0.237,0.092 -0.496,0.136 -0.783,0.136 -0.496,0 -0.88,-0.115 -1.146,-0.343 -0.271,-0.229 -0.405,-0.556 -0.405,-0.985 0,-0.1 0.006,-0.207 0.02,-0.321 0.009,-0.114 0.028,-0.235 0.056,-0.371 z"
         style="fill:#ffffff;fill-rule:nonzero" />
    </g>
    <g
       id="g127">
      <path
         id="path127"
         d="m 130.022,340.565 h -1.006 l 0.816,-4.304 h -1.305 l 0.167,-0.9 h 3.612 l -0.175,0.9 h -1.292 z"
         style="fill:#ffffff;fill-rule:nonzero" />
    </g>
    <g
       id="g136">
      <g
         id="g133">
        <path
           id="path128"
           d="m 65.53,354.8 c 0.169,0.357 0.224,0.715 0.165,1.075 h -1.179 c -0.018,-0.276 -0.073,-0.485 -0.165,-0.625 -0.161,-0.25 -0.452,-0.375 -0.873,-0.375 -0.429,0 -0.804,0.176 -1.125,0.529 -0.322,0.353 -0.549,0.852 -0.683,1.498 -0.135,0.646 -0.106,1.129 0.089,1.451 0.194,0.322 0.493,0.482 0.895,0.482 0.414,0 0.759,-0.138 1.034,-0.414 0.151,-0.148 0.297,-0.371 0.437,-0.668 h 1.168 c -0.232,0.628 -0.6,1.138 -1.101,1.532 -0.502,0.392 -1.081,0.589 -1.737,0.589 -0.811,0 -1.394,-0.266 -1.749,-0.796 -0.352,-0.534 -0.431,-1.266 -0.237,-2.196 0.208,-1.005 0.634,-1.78 1.275,-2.324 0.559,-0.474 1.193,-0.711 1.902,-0.711 0.95,0 1.577,0.318 1.884,0.953 z"
           style="fill-rule:nonzero" />
        <path
           id="path129"
           d="m 68.141,358.328 2.148,-4.371 h 1.225 l -3.124,5.756 h -1.114 l -0.709,-5.756 h 1.261 z"
           style="fill-rule:nonzero" />
        <path
           id="path130"
           d="m 75.967,355.496 -0.165,0.785 h -0.715 l -0.713,3.432 H 73.287 L 74,356.281 h -0.61 l 0.165,-0.785 h 0.598 l 0.056,-0.274 c 0.096,-0.456 0.236,-0.769 0.422,-0.941 0.212,-0.255 0.62,-0.383 1.225,-0.383 0.069,0 0.131,0.002 0.186,0.006 0.055,0.004 0.131,0.01 0.228,0.017 l -0.191,0.907 c -0.059,-0.008 -0.16,-0.014 -0.303,-0.018 -0.143,-0.004 -0.25,0.029 -0.32,0.098 -0.07,0.069 -0.112,0.145 -0.128,0.228 -0.018,0.084 -0.043,0.203 -0.077,0.36 z"
           style="fill-rule:nonzero" />
        <path
           id="path131"
           d="m 78.517,359.113 c -0.012,0.013 -0.046,0.052 -0.1,0.117 -0.053,0.065 -0.113,0.121 -0.179,0.171 -0.205,0.156 -0.393,0.263 -0.565,0.32 -0.172,0.057 -0.365,0.086 -0.58,0.086 -0.617,0 -0.987,-0.226 -1.106,-0.679 -0.067,-0.25 -0.049,-0.618 0.053,-1.105 l 0.533,-2.566 h 1.117 l -0.532,2.566 c -0.051,0.242 -0.061,0.424 -0.031,0.547 0.054,0.216 0.226,0.324 0.517,0.324 0.372,0 0.66,-0.154 0.862,-0.461 0.107,-0.167 0.189,-0.387 0.245,-0.66 l 0.482,-2.316 h 1.106 l -0.884,4.256 h -1.06 z"
           style="fill-rule:nonzero" />
        <path
           id="path132"
           d="m 83.709,357.125 c 0.048,-0.224 0.055,-0.396 0.019,-0.516 -0.061,-0.219 -0.242,-0.328 -0.543,-0.328 -0.371,0 -0.658,0.16 -0.862,0.48 -0.108,0.17 -0.188,0.386 -0.241,0.649 l -0.479,2.303 h -1.087 l 0.884,-4.249 h 1.054 l -0.131,0.621 c 0.186,-0.218 0.352,-0.376 0.498,-0.472 0.26,-0.172 0.563,-0.258 0.907,-0.258 0.431,0 0.76,0.115 0.986,0.346 0.226,0.23 0.284,0.612 0.174,1.146 l -0.597,2.866 h -1.118 z"
           style="fill-rule:nonzero" />
        <path
           id="path133"
           d="m 86.634,358.375 -0.275,1.338 h -1.073 l 1.195,-5.737 h 1.072 l -0.648,3.102 1.693,-1.602 h 1.352 l -1.8,1.629 0.976,2.608 h -1.317 l -0.619,-1.819 z"
           style="fill-rule:nonzero" />
      </g>
      <g
         id="g134">
        <path
           id="path134"
           d="M 39.43,356.861 H 58.053"
           style="fill:none;stroke:#000000;stroke-width:0.64px;stroke-linecap:round" />
      </g>
      <g
         id="g135">
        <path
           id="path135"
           d="m 90.923,356.861 h 18.623"
           style="fill:none;stroke:#000000;stroke-width:0.64px;stroke-linecap:round" />
      </g>
    </g>
    <path
       id="path136"
       d="m 37.232839,203.31284 v -7.256"
       style="clip-rule:evenodd;display:inline;fill:none;fill-rule:evenodd;stroke:#000000;stroke-width:1.16px;stroke-linejoin:round;stroke-miterlimit:1.5" />
    <g
       id="g137"
       transform="matrix(-1,0,0,1,74.763032,0.45808783)">
      <path
         id="path137"
         d="m 48.47,244.36 -2.759,-0.712 0.697,-2.82"
         style="fill:none;stroke:#000000;stroke-width:0.85px;stroke-linejoin:miter;stroke-miterlimit:10" />
    </g>
  </g>
  <g
     inkscape:groupmode="layer"
     id="layer2"
     inkscape:label="components"
     style="display:none">
    <ellipse
       id="Bias"
       cx="12.97803"
       cy="49.183418"
       style="clip-rule:evenodd;display:inline;fill:#ff0000;fill-rule:evenodd;stroke-width:0.348764;stroke-linejoin:round;stroke-miterlimit:2"
       rx="5.180016"
       ry="5.2834396" />
    <ellipse
       id="Step"
       cx="12.97803"
       cy="78.96476"
       style="clip-rule:evenodd;display:inline;fill:#ff0000;fill-rule:evenodd;stroke-width:0.348764;stroke-linejoin:round;stroke-miterlimit:2"
       rx="5.180016"
       ry="5.2834396" />
    <ellipse
       id="Range"
       cx="37.218784"
       cy="49.183418"
       style="clip-rule:evenodd;display:inline;fill:#ff0000;fill-rule:evenodd;stroke-width:0.348764;stroke-linejoin:round;stroke-miterlimit:2"
       rx="5.180016"
       ry="5.2834396" />
    <ellipse
       id="Step1"
       serif:id="Step"
       cx="7.2996931"
       cy="112.26311"
       rx="3.9499347"
       ry="3.9946325"
       style="clip-rule:evenodd;display:inline;fill:#00ff00;fill-rule:evenodd;stroke-width:0.348764;stroke-linejoin:round;stroke-miterlimit:2"
       inkscape:label="Step" />
    <ellipse
       id="Comparator"
       cx="7.2996931"
       cy="28.408224"
       rx="3.9499347"
       ry="3.9946325"
       style="clip-rule:evenodd;display:inline;fill:#00ff00;fill-rule:evenodd;stroke-width:0.348764;stroke-linejoin:round;stroke-miterlimit:2" />
    <ellipse
       id="Invert"
       cx="7.2996931"
       cy="94.974281"
       rx="3.9499347"
       ry="3.9946325"
       style="clip-rule:evenodd;display:inline;fill:#00ff00;fill-rule:evenodd;stroke-width:0.348764;stroke-linejoin:round;stroke-miterlimit:2" />
    <ellipse
       id="Trigger"
       cx="19.544559"
       cy="112.26311"
       rx="3.9499347"
       ry="3.9946325"
       style="clip-rule:evenodd;display:inline;fill:#00ff00;fill-rule:evenodd;stroke-width:0.348764;stroke-linejoin:round;stroke-miterlimit:2" />
    <ellipse
       id="Bias1"
       serif:id="Bias"
       cx="19.544559"
       cy="28.408224"
       rx="3.9499347"
       ry="3.9946325"
       style="clip-rule:evenodd;display:inline;fill:#00ff00;fill-rule:evenodd;stroke-width:0.348764;stroke-linejoin:round;stroke-miterlimit:2"
       inkscape:label="Bias" />
    <ellipse
       id="Reset"
       cx="32.158588"
       cy="112.26311"
       rx="3.9499347"
       ry="3.9946325"
       style="clip-rule:evenodd;display:inline;fill:#00ff00;fill-rule:evenodd;stroke-width:0.348764;stroke-linejoin:round;stroke-miterlimit:2" />
    <ellipse
       id="Range1"
       serif:id="Range"
       cx="32.158588"
       cy="28.408224"
       rx="3.9499347"
       ry="3.9946325"
       style="clip-rule:evenodd;display:inline;fill:#00ff00;fill-rule:evenodd;stroke-width:0.348764;stroke-linejoin:round;stroke-miterlimit:2"
       inkscape:label="Range" />
    <ellipse
       id="Stepper"
       cx="44.425556"
       cy="112.26311"
       rx="3.9499347"
       ry="3.9946325"
       style="clip-rule:evenodd;display:inline;fill:#0000ff;fill-rule:evenodd;stroke-width:0.348764;stroke-linejoin:round;stroke-miterlimit:2" />
    <ellipse
       id="Comparator1"
       serif:id="Comparator"
       cx="44.425556"
       cy="28.485008"
       rx="3.9499347"
       ry="3.9946325"
       style="clip-rule:evenodd;display:inline;fill:#0000ff;fill-rule:evenodd;stroke-width:0.348764;stroke-linejoin:round;stroke-miterlimit:2"
       inkscape:label="Comparator_dn" />
    <ellipse
       id="Comparator_up"
       cx="44.444553"
       cy="19.632431"
       rx="3.9499347"
       ry="3.9946325"
       style="clip-rule:evenodd;display:inline;fill:#0000ff;fill-rule:evenodd;stroke-width:0.348764;stroke-linejoin:round;stroke-miterlimit:2" />
    <ellipse
       id="Up"
       cx="39.075291"
       cy="21.719038"
       rx="1.4801031"
       ry="1.5216306"
       style="clip-rule:evenodd;display:inline;fill:#ff00ff;fill-rule:evenodd;stroke-width:0.348764;stroke-linejoin:round;stroke-miterlimit:2" />
    <ellipse
       id="Down"
       cx="39.189945"
       cy="31.283472"
       rx="1.4801031"
       ry="1.5216306"
       style="clip-rule:evenodd;display:inline;fill:#ff00ff;fill-rule:evenodd;stroke-width:0.348764;stroke-linejoin:round;stroke-miterlimit:2" />
    <ellipse
       id="Sample"
       cx="45.599194"
       cy="78.456627"
       rx="1.4801031"
       ry="1.5216306"
       style="clip-rule:evenodd;display:inline;fill:#ff00ff;fill-rule:evenodd;stroke-width:0.348764;stroke-linejoin:round;stroke-miterlimit:2" />
    <ellipse
       id="LED_Sample2"
       serif:id="LED_Sample"
       cx="40.922634"
       cy="78.466492"
       rx="1.4964427"
       ry="1.5210958"
       style="clip-rule:evenodd;fill:#ff00ff;fill-rule:evenodd;stroke-width:0.352187;stroke-linejoin:round;stroke-miterlimit:1.5"
       inkscape:label="OUT10" />
    <ellipse
       id="LED_Sample8"
       serif:id="LED_Sample"
       cx="40.922634"
       cy="81.61187"
       rx="1.4964427"
       ry="1.5210958"
       style="clip-rule:evenodd;fill:#ff00ff;fill-rule:evenodd;stroke-width:0.352187;stroke-linejoin:round;stroke-miterlimit:1.5"
       inkscape:label="OUT9" />
    <ellipse
       id="LED_Sample5"
       serif:id="LED_Sample"
       cx="40.922634"
       cy="84.756905"
       rx="1.4964427"
       ry="1.5210958"
       style="clip-rule:evenodd;fill:#ff00ff;fill-rule:evenodd;stroke-width:0.352187;stroke-linejoin:round;stroke-miterlimit:1.5"
       inkscape:label="OUT8" />
    <ellipse
       id="LED_Sample1"
       serif:id="LED_Sample"
       cx="40.922634"
       cy="87.902283"
       rx="1.4964427"
       ry="1.5210958"
       style="clip-rule:evenodd;fill:#ff00ff;fill-rule:evenodd;stroke-width:0.352187;stroke-linejoin:round;stroke-miterlimit:1.5"
       inkscape:label="OUT7" />
    <ellipse
       id="LED_Sample7"
       serif:id="LED_Sample"
       cx="40.922634"
       cy="91.047318"
       rx="1.4964427"
       ry="1.5210958"
       style="clip-rule:evenodd;fill:#ff00ff;fill-rule:evenodd;stroke-width:0.352187;stroke-linejoin:round;stroke-miterlimit:1.5"
       inkscape:label="OUT6" />
    <ellipse
       id="LED_Sample4"
       serif:id="LED_Sample"
       cx="40.922634"
       cy="94.192345"
       rx="1.4964427"
       ry="1.5210958"
       style="clip-rule:evenodd;fill:#ff00ff;fill-rule:evenodd;stroke-width:0.352187;stroke-linejoin:round;stroke-miterlimit:1.5"
       inkscape:label="OUT5" />
    <ellipse
       id="LED_Sample"
       cx="40.922634"
       cy="97.337715"
       rx="1.4964427"
       ry="1.5210958"
       style="clip-rule:evenodd;fill:#ff00ff;fill-rule:evenodd;stroke-width:0.352187;stroke-linejoin:round;stroke-miterlimit:1.5"
       inkscape:label="OUT4" />
    <ellipse
       id="LED_Sample6"
       serif:id="LED_Sample"
       cx="40.922634"
       cy="100.48277"
       rx="1.4964427"
       ry="1.5210958"
       style="clip-rule:evenodd;fill:#ff00ff;fill-rule:evenodd;stroke-width:0.352187;stroke-linejoin:round;stroke-miterlimit:1.5"
       inkscape:label="OUT3" />
    <ellipse
       id="LED_Sample3"
       serif:id="LED_Sample"
       cx="40.922634"
       cy="103.62814"
       rx="1.4964427"
       ry="1.5210958"
       style="clip-rule:evenodd;fill:#ff00ff;fill-rule:evenodd;stroke-width:0.352187;stroke-linejoin:round;stroke-miterlimit:1.5"
       inkscape:label="OUT2" />
    <ellipse
       id="LED_Sample9"
       serif:id="LED_Sample"
       cx="40.922634"
       cy="106.77318"
       rx="1.4964427"
       ry="1.5210958"
       style="clip-rule:evenodd;fill:#ff00ff;fill-rule:evenodd;stroke-width:0.352187;stroke-linejoin:round;stroke-miterlimit:1.5"
       inkscape:label="OUT1" />
  </g>
</svg>
